<svg width="110" height="111" viewBox="0 0 110 111" fill="none" xmlns="http://www.w3.org/2000/svg">
<g clip-path="url(#clip0_78_1484)">
<circle cx="55" cy="55.5" r="55" fill="#D9D9D9"/>
<path d="M55.984 72.3056C65.8445 72.3056 73.8381 64.3121 73.8381 54.4515C73.8381 44.591 65.8445 36.5974 55.984 36.5974C46.1234 36.5974 38.1299 44.591 38.1299 54.4515C38.1299 64.3121 46.1234 72.3056 55.984 72.3056Z" fill="#2F2E41"/>
<path d="M41.2061 76.3035L44.9279 66.7922L64.1572 63.8975L66.2232 84.9519L46.7871 85.3654L41.2061 76.3035Z" fill="#2F2E41"/>
<path d="M74.0106 57.7458C73.7789 58.6741 73.3105 60.8844 72.579 60.8953C71.9814 60.904 71.4094 51.3148 72.0063 49.7287C72.6921 47.9065 70.89 45.6015 69.5326 44.4183C67.0918 42.2908 61.674 46.8591 56.1648 44.7896C56.0188 44.7348 56.0479 44.741 54.3082 44.0469C48.9551 41.9111 48.6737 41.8494 48.367 41.819C45.772 41.5623 42.605 43.6858 41.3118 46.2749C39.9675 48.9663 41.0907 51.2747 39.8265 57.786C39.6792 58.545 39.4478 59.6267 39.0838 59.6426C38.4184 59.6716 37.7687 56.1176 37.5985 55.1867C36.8856 51.2867 36.1983 47.5267 37.5985 43.3043C37.7513 42.8438 38.6927 41.1344 40.5691 37.7344C43.2725 32.8365 44.6322 30.3782 45.0251 29.9366C47.843 26.7676 52.9723 23.8768 57.2788 25.1093C59.4554 25.7323 59.0652 26.7339 61.7347 27.7086C66.492 29.4456 70.6267 27.3213 71.3892 28.8226C71.7931 29.6178 70.6629 30.2734 70.6465 31.7932C70.6184 34.4008 73.9164 35.1543 75.8451 37.7344C76.8819 39.1214 78.6566 39.1363 74.0106 57.7458Z" fill="#2F2E41"/>
<path d="M96.1297 92.0172C95.4101 92.8257 94.6637 93.6176 93.8904 94.391C83.5024 104.779 69.6904 110.5 54.9996 110.5C42.302 110.5 30.262 106.226 20.5212 98.3587C20.515 98.3547 20.5108 98.3504 20.5047 98.3442C19.2124 97.3023 17.9614 96.1939 16.7539 95.0236C16.7766 94.8417 16.8015 94.6617 16.8283 94.4838C16.9979 93.2846 17.1861 92.1412 17.3969 91.0888C19.1234 82.4625 41.841 73.4061 42.4323 73.1703C42.4406 73.1683 42.4447 73.1663 42.4447 73.1663C42.4447 73.1663 45.3684 83.943 57.8964 83.8045C66.4297 83.7114 64.7755 73.1663 64.7755 73.1663C64.7755 73.1663 64.8789 73.1869 65.0733 73.2282C67.5379 73.7514 84.65 77.5104 91.4009 82.6404C93.4582 84.2035 94.9345 87.5325 95.9953 91.5023C96.0407 91.6719 96.0842 91.8456 96.1297 92.0172Z" fill="#2F2E41"/>
</g>
<defs>
<clipPath id="clip0_78_1484">
<rect width="110" height="110" fill="white" transform="translate(0 0.5)"/>
</clipPath>
</defs>
</svg>
