<svg width="192" height="66" viewBox="0 0 192 66" fill="none" xmlns="http://www.w3.org/2000/svg">
<path d="M17.6198 15.68H32.7998V24.92H17.6198V15.68ZM18.5798 28.1H35.4998V38H5.01984V3.08H34.8398V12.98H18.5798V28.1ZM50.9133 38L36.0333 3.08H50.6133L62.2533 32.3H53.7333L65.7933 3.08H79.2933L64.4733 38H50.9133ZM93.9675 15.68H109.148V24.92H93.9675V15.68ZM94.9275 28.1H111.848V38H81.3675V3.08H111.188V12.98H94.9275V28.1ZM116.641 38V3.08H127.981L144.601 22.46H139.441V3.08H152.881V38H141.541L124.801 18.62H130.081V38H116.641ZM166.199 38V13.28H156.239V3.08H189.959V13.28H179.999V38H166.199ZM57.4095 62.3C56.1295 62.3 54.9761 62.04 53.9495 61.52C52.9361 61 52.1361 60.28 51.5495 59.36C50.9628 58.4267 50.6695 57.3667 50.6695 56.18C50.6695 54.98 50.9628 53.92 51.5495 53C52.1361 52.08 52.9361 51.36 53.9495 50.84C54.9761 50.32 56.1295 50.06 57.4095 50.06C58.5961 50.06 59.6428 50.2467 60.5495 50.62C61.4561 50.98 62.2361 51.6133 62.8895 52.52L59.9495 55.02C59.6028 54.5533 59.2361 54.2133 58.8495 54C58.4628 53.7733 58.0428 53.66 57.5895 53.66C57.1495 53.66 56.7561 53.76 56.4095 53.96C56.0628 54.16 55.7895 54.4467 55.5895 54.82C55.4028 55.1933 55.3095 55.6467 55.3095 56.18C55.3095 56.7133 55.4028 57.1667 55.5895 57.54C55.7895 57.9133 56.0628 58.2 56.4095 58.4C56.7561 58.6 57.1495 58.7 57.5895 58.7C58.0428 58.7 58.4628 58.5867 58.8495 58.36C59.2361 58.1333 59.6028 57.7933 59.9495 57.34L62.8895 59.84C62.2361 60.7333 61.4561 61.3667 60.5495 61.74C59.6428 62.1133 58.5961 62.3 57.4095 62.3ZM70.1062 62.3C68.7995 62.3 67.6328 62.04 66.6062 61.52C65.5795 60.9867 64.7728 60.26 64.1862 59.34C63.5995 58.4067 63.3062 57.3533 63.3062 56.18C63.3062 54.9933 63.5995 53.94 64.1862 53.02C64.7728 52.1 65.5795 51.38 66.6062 50.86C67.6328 50.3267 68.7995 50.06 70.1062 50.06C71.4128 50.06 72.5728 50.3267 73.5862 50.86C74.6128 51.38 75.4195 52.1 76.0062 53.02C76.5928 53.94 76.8862 54.9933 76.8862 56.18C76.8862 57.3533 76.5928 58.4067 76.0062 59.34C75.4195 60.26 74.6128 60.9867 73.5862 61.52C72.5728 62.04 71.4128 62.3 70.1062 62.3ZM70.1062 58.7C70.5328 58.7 70.9062 58.5933 71.2262 58.38C71.5462 58.1667 71.7928 57.8733 71.9662 57.5C72.1528 57.1133 72.2462 56.6733 72.2462 56.18C72.2462 55.6867 72.1528 55.2533 71.9662 54.88C71.7928 54.4933 71.5462 54.1933 71.2262 53.98C70.9062 53.7667 70.5328 53.66 70.1062 53.66C69.6928 53.66 69.3195 53.7667 68.9862 53.98C68.6662 54.1933 68.4128 54.4933 68.2262 54.88C68.0395 55.2533 67.9462 55.6867 67.9462 56.18C67.9462 56.6733 68.0395 57.1133 68.2262 57.5C68.4128 57.8733 68.6662 58.1667 68.9862 58.38C69.3195 58.5933 69.6928 58.7 70.1062 58.7ZM78.4174 62V50.36H82.1974L87.7374 56.82H86.0174V50.36H90.4974V62H86.7174L81.1374 55.54H82.8974V62H78.4174ZM92.6166 62V50.36H96.3966L101.937 56.82H100.217V50.36H104.697V62H100.917L95.3366 55.54H97.0966V62H92.6166ZM111.016 54.56H116.076V57.64H111.016V54.56ZM111.336 58.7H116.976V62H106.816V50.36H116.756V53.66H111.336V58.7ZM124.734 62.3C123.454 62.3 122.3 62.04 121.274 61.52C120.26 61 119.46 60.28 118.874 59.36C118.287 58.4267 117.994 57.3667 117.994 56.18C117.994 54.98 118.287 53.92 118.874 53C119.46 52.08 120.26 51.36 121.274 50.84C122.3 50.32 123.454 50.06 124.734 50.06C125.92 50.06 126.967 50.2467 127.874 50.62C128.78 50.98 129.56 51.6133 130.214 52.52L127.274 55.02C126.927 54.5533 126.56 54.2133 126.174 54C125.787 53.7733 125.367 53.66 124.914 53.66C124.474 53.66 124.08 53.76 123.734 53.96C123.387 54.16 123.114 54.4467 122.914 54.82C122.727 55.1933 122.634 55.6467 122.634 56.18C122.634 56.7133 122.727 57.1667 122.914 57.54C123.114 57.9133 123.387 58.2 123.734 58.4C124.08 58.6 124.474 58.7 124.914 58.7C125.367 58.7 125.787 58.5867 126.174 58.36C126.56 58.1333 126.927 57.7933 127.274 57.34L130.214 59.84C129.56 60.7333 128.78 61.3667 127.874 61.74C126.967 62.1133 125.92 62.3 124.734 62.3ZM133.823 62V53.76H130.503V50.36H141.743V53.76H138.423V62H133.823Z" fill="black"/>
<rect x="46" y="42.8167" width="45.3845" height="4" transform="rotate(-67.1296 46 42.8167)" fill="#F6F7FB"/>
<rect x="153.884" y="32.2064" width="40.2865" height="4" transform="rotate(-133.8 153.884 32.2064)" fill="#F6F7FB"/>
</svg>
