<svg width="26" height="26" viewBox="0 0 26 26" fill="none" xmlns="http://www.w3.org/2000/svg">
<circle cx="5" cy="5" r="5" transform="matrix(4.37114e-08 -1 -1 -4.37114e-08 21 18)" fill="#7E869E" fill-opacity="0.25"/>
<circle cx="5" cy="5" r="5.3" transform="matrix(4.37114e-08 -1 -1 -4.37114e-08 21 18)" stroke="#7E869E" stroke-opacity="0.25" stroke-width="0.6"/>
<path d="M8.66699 20.5055C9.98449 21.2661 11.479 21.6666 13.0003 21.6666C14.5216 21.6666 16.0162 21.2661 17.3337 20.5055C18.6512 19.7448 19.7452 18.6508 20.5059 17.3333C21.2665 16.0158 21.667 14.5212 21.667 12.9999C21.667 11.4786 21.2665 9.98409 20.5059 8.66659C19.7452 7.34909 18.6512 6.25502 17.3337 5.49437C16.0162 4.73371 14.5216 4.33325 13.0003 4.33325C11.479 4.33325 9.98449 4.73371 8.66699 5.49436" stroke="#222222" stroke-width="1.2"/>
<path d="M2.16699 12.9999L1.69847 12.6251L1.39862 12.9999L1.69847 13.3747L2.16699 12.9999ZM11.917 13.5999C12.2484 13.5999 12.517 13.3313 12.517 12.9999C12.517 12.6685 12.2484 12.3999 11.917 12.3999V13.5999ZM6.0318 7.20843L1.69847 12.6251L2.63551 13.3747L6.96885 7.95807L6.0318 7.20843ZM1.69847 13.3747L6.0318 18.7914L6.96885 18.0418L2.63551 12.6251L1.69847 13.3747ZM2.16699 13.5999H11.917V12.3999H2.16699V13.5999Z" fill="#222222"/>
</svg>
