<svg width="154" height="154" viewBox="0 0 154 154" fill="none" xmlns="http://www.w3.org/2000/svg">
<path d="M58.023 151.5L54.4961 151.5L52.8184 137.866L58.0237 137.866L58.023 151.5Z" fill="#A0616A"/>
<path d="M45.9397 151.42C45.8299 151.605 45.772 152.203 45.772 152.419C45.772 153.081 46.3079 153.619 46.969 153.619H57.8914C58.3423 153.619 58.708 153.252 58.708 152.8V152.344C58.708 152.344 59.2483 150.975 58.1359 149.286C58.1359 149.286 56.7533 150.608 54.6873 148.538L54.0781 147.432L49.6681 150.664L47.2238 150.966C46.689 151.032 46.2148 150.955 45.9397 151.42Z" fill="#2F2E41"/>
<path d="M42.2203 151.5L38.6934 151.5L37.0156 137.866L42.221 137.866L42.2203 151.5Z" fill="#A0616A"/>
<path d="M30.137 151.42C30.0272 151.605 29.9692 152.203 29.9692 152.419C29.9692 153.081 30.5052 153.619 31.1663 153.619H42.0886C42.5396 153.619 42.9052 153.252 42.9052 152.8V152.344C42.9052 152.344 43.4456 150.975 42.3331 149.286C42.3331 149.286 40.9506 150.608 38.8846 148.538L38.2754 147.432L33.8654 150.664L31.421 150.966C30.8863 151.032 30.4121 150.955 30.137 151.42Z" fill="#2F2E41"/>
<path d="M58.3258 65.9653L61.6094 74.3981L59.0441 141.757H51.8613L45.3967 80.9797L43.8575 141.963L36.8799 141.757L29.2866 74.0896L34.3146 68.0221L58.3258 65.9653Z" fill="#2F2E41"/>
<path d="M42.8316 18.1455L51.451 17.5284L54.1189 21.8477L62.1226 24.1101L59.1469 44.9863L62.3279 76.1463C62.3279 76.1463 50.8353 74.5009 50.0144 77.7918C49.1935 81.0826 29.0815 74.5009 29.0815 74.5009L35.9566 53.2134L35.3409 36.5536L33.4939 26.8867L41.9081 22.9789L42.8316 18.1455Z" fill="#E6E6E6"/>
<path d="M38.9324 24.3158C38.9324 24.3158 32.0639 24.2129 31.1372 27.0924C30.2104 29.9719 27.1321 49.9225 27.1321 49.9225L24.772 58.6638L35.341 53.419L33.0836 49.9282L40.4716 35.7308L38.9324 24.3158Z" fill="#E6E6E6"/>
<path d="M43.134 56.2985C44.2697 56.2997 45.3255 55.6437 45.7671 54.5951C46.101 53.802 46.0695 53.0411 45.8196 52.3888C45.9 52.3554 45.9798 52.3207 46.0621 52.2911C45.9411 52.242 45.8236 52.1865 45.7062 52.131C45.297 51.3138 44.5127 50.7207 43.5785 50.5767C42.4214 49.3344 41.7101 47.6699 41.7027 45.8379C41.6874 42.0624 44.7434 38.9086 48.5097 38.818C48.5393 38.8173 48.5689 38.8168 48.5985 38.8165C50.285 38.797 51.8148 39.7425 52.6693 41.1998C53.1679 42.0502 54.0892 42.621 55.1448 42.621C55.9529 42.621 56.682 42.2862 57.2031 41.7476C58.3384 40.5741 59.7601 39.701 61.369 39.4331C62.4256 39.2572 63.5191 39.1908 64.638 39.2466C72.297 39.6281 78.8863 46.4312 79.0499 54.1149C79.2321 62.6728 72.3645 69.6675 63.8668 69.6675C59.4452 69.6675 55.4669 67.7725 52.6923 64.7495C51.4605 63.4074 49.7344 62.6556 47.915 62.6742C47.8965 62.6744 47.8779 62.6745 47.8594 62.6745C44.9125 62.6745 42.5235 60.2803 42.5235 57.3269C42.5235 57.1631 42.5317 57.0013 42.5469 56.8416C42.5754 56.5429 42.8347 56.2982 43.134 56.2985Z" fill="#95D1B7"/>
<path d="M142.392 113.248C142.019 112.618 140.407 113.293 140.11 112.721C139.815 112.151 141.313 111.283 142.169 109.3C142.323 108.943 143.296 106.69 142.576 105.994C141.211 104.676 134.964 110.115 132.778 108.335C132.298 107.945 131.963 107.165 130.511 105.899C129.934 105.395 129.584 105.168 129.246 105.253C128.767 105.373 128.729 106.016 128.214 107.281C127.443 109.178 126.987 109.064 126.537 110.577C126.204 111.701 126.28 112.354 125.887 112.481C125.332 112.661 124.82 111.47 124.116 111.576C123.398 111.685 122.964 113.073 122.826 114.112C122.569 116.062 123.283 117.348 123.679 118.701C124.11 120.171 124.365 122.407 123.371 125.572L113.535 153.346C115.707 147.647 121.994 132.024 124.636 126.218C125.399 124.542 126.241 122.842 127.97 122.172C129.635 121.526 131.921 121.911 134.836 121.207C135.177 121.125 136.121 120.884 136.24 120.328C136.338 119.867 135.783 119.61 135.868 119.179C135.983 118.601 137.075 118.594 138.418 117.926C139.365 117.456 139.955 116.896 140.462 116.415C140.615 116.27 142.888 114.087 142.392 113.248Z" fill="#F2F2F2"/>
<path d="M103.694 127.87C103.278 127.871 103.143 128.859 102.777 128.84C102.413 128.821 102.42 127.834 101.696 126.84C101.566 126.661 100.743 125.533 100.195 125.686C99.1553 125.977 100.016 130.619 98.5141 131.181C98.1844 131.304 97.7058 131.244 96.6669 131.593C96.2535 131.732 96.0414 131.838 95.9853 132.029C95.9057 132.3 96.2098 132.504 96.6809 133.122C97.3874 134.049 97.1997 134.24 97.8113 134.898C98.2653 135.386 98.6072 135.537 98.5562 135.767C98.4841 136.092 97.7529 136 97.602 136.377C97.4481 136.762 98.0023 137.376 98.4716 137.743C99.3521 138.432 100.188 138.452 100.965 138.648C101.809 138.86 102.978 139.38 104.241 140.782L115.005 153.634C112.84 150.921 107.003 143.321 104.923 140.346C104.322 139.487 103.732 138.583 103.903 137.538C104.067 136.533 104.915 135.52 105.412 133.883C105.47 133.692 105.624 133.158 105.386 132.938C105.189 132.757 104.903 132.956 104.716 132.79C104.466 132.567 104.778 132.027 104.838 131.174C104.881 130.573 104.777 130.121 104.688 129.733C104.661 129.616 104.248 127.868 103.694 127.87Z" fill="#F2F2F2"/>
<path d="M111.994 129.737L111.744 127.494L111.858 127.324C112.388 126.538 112.658 125.77 112.662 125.042C112.662 124.926 112.657 124.81 112.651 124.692C112.63 124.224 112.603 123.643 112.905 122.965C113.075 122.587 113.551 121.712 114.268 121.82C114.461 121.847 114.606 121.936 114.717 122.04C114.733 122.014 114.75 121.988 114.768 121.96C114.991 121.619 115.168 121.472 115.338 121.332C115.469 121.223 115.604 121.112 115.816 120.848C115.908 120.732 115.981 120.63 116.042 120.544C116.227 120.286 116.469 119.977 116.896 119.982C117.352 120.004 117.591 120.382 117.749 120.632C118.032 121.078 118.16 121.4 118.245 121.613C118.275 121.691 118.31 121.779 118.328 121.806C118.475 122.023 119.67 121.82 120.12 121.746C121.131 121.577 122.005 121.431 122.366 122.07C122.624 122.527 122.432 123.131 121.778 123.914C121.575 124.158 121.358 124.343 121.166 124.488C121.325 124.584 121.468 124.73 121.526 124.959C121.662 125.503 121.195 126.048 120.14 126.58C119.878 126.714 119.526 126.891 119.031 126.977C118.798 127.017 118.589 127.027 118.409 127.032C118.406 127.136 118.381 127.249 118.318 127.364C118.133 127.706 117.747 127.868 117.166 127.829C116.526 127.795 115.999 127.673 115.535 127.566C115.129 127.473 114.779 127.394 114.505 127.412C113.996 127.453 113.604 127.862 113.143 128.391L111.994 129.737Z" fill="#F2F2F2"/>
<path d="M113.158 116.384L111.057 117.196L110.863 117.128C109.97 116.814 109.161 116.747 108.456 116.928C108.344 116.957 108.234 116.992 108.121 117.027C107.675 117.167 107.121 117.34 106.39 117.219C105.982 117.15 105.017 116.91 104.94 116.188C104.917 115.995 104.966 115.831 105.038 115.697C105.009 115.688 104.979 115.678 104.948 115.668C104.562 115.538 104.376 115.404 104.197 115.275C104.059 115.175 103.917 115.073 103.608 114.935C103.473 114.874 103.356 114.829 103.258 114.792C102.962 114.678 102.602 114.522 102.499 114.107C102.405 113.659 102.709 113.332 102.91 113.115C103.269 112.728 103.547 112.522 103.731 112.386C103.799 112.336 103.874 112.28 103.896 112.256C104.068 112.058 103.569 110.951 103.384 110.534C102.965 109.597 102.602 108.786 103.127 108.275C103.503 107.908 104.134 107.941 105.056 108.376C105.343 108.512 105.576 108.675 105.765 108.824C105.817 108.646 105.922 108.47 106.129 108.356C106.619 108.086 107.263 108.4 108.045 109.288C108.24 109.508 108.501 109.805 108.709 110.263C108.806 110.478 108.869 110.679 108.92 110.851C109.021 110.829 109.136 110.824 109.264 110.856C109.64 110.949 109.894 111.281 110.004 111.855C110.134 112.483 110.15 113.025 110.164 113.503C110.177 113.92 110.189 114.279 110.277 114.54C110.446 115.023 110.939 115.3 111.567 115.612L113.158 116.384Z" fill="#F2F2F2"/>
<path d="M111.994 109.777L111.744 107.534L111.858 107.364C112.388 106.578 112.658 105.81 112.662 105.082C112.662 104.966 112.657 104.85 112.651 104.732C112.63 104.264 112.603 103.682 112.905 103.005C113.075 102.627 113.551 101.752 114.268 101.86C114.461 101.887 114.606 101.976 114.717 102.08C114.733 102.054 114.75 102.028 114.768 102C114.991 101.659 115.168 101.512 115.338 101.372C115.469 101.263 115.604 101.152 115.816 100.888C115.908 100.772 115.981 100.67 116.042 100.584C116.227 100.325 116.469 100.017 116.896 100.022C117.352 100.044 117.591 100.422 117.749 100.672C118.032 101.118 118.16 101.44 118.245 101.653C118.275 101.731 118.31 101.819 118.328 101.846C118.475 102.062 119.67 101.86 120.12 101.786C121.131 101.617 122.005 101.471 122.366 102.11C122.624 102.567 122.432 103.171 121.778 103.954C121.575 104.198 121.358 104.383 121.166 104.528C121.325 104.624 121.468 104.77 121.526 104.999C121.662 105.543 121.195 106.088 120.14 106.62C119.878 106.754 119.526 106.931 119.031 107.017C118.798 107.057 118.589 107.067 118.409 107.072C118.406 107.176 118.381 107.289 118.318 107.404C118.133 107.746 117.747 107.908 117.166 107.869C116.526 107.835 115.999 107.713 115.535 107.606C115.129 107.513 114.779 107.434 114.505 107.452C113.996 107.493 113.604 107.901 113.143 108.431L111.994 109.777Z" fill="#F2F2F2"/>
<path d="M114.284 153.31L113.815 153.015L113.269 153.078C113.26 153.027 113.23 152.91 113.185 152.727C112.941 151.724 112.195 148.673 111.572 143.867C111.138 140.512 110.892 137.063 110.841 133.614C110.791 130.159 110.954 127.544 111.084 125.442C111.183 123.857 111.303 122.347 111.421 120.877C111.734 116.948 112.03 113.237 111.81 109.128C111.761 108.211 111.659 106.302 110.546 104.271C109.901 103.092 109.011 102.046 107.903 101.163L108.592 100.294C109.816 101.271 110.8 102.43 111.517 103.738C112.751 105.99 112.862 108.07 112.915 109.07C113.139 113.251 112.84 116.998 112.524 120.965C112.407 122.43 112.287 123.933 112.189 125.512C112.059 127.594 111.897 130.187 111.948 133.597C111.997 137.004 112.241 140.411 112.669 143.724C113.284 148.469 114.019 151.475 114.261 152.463C114.389 152.99 114.416 153.101 114.284 153.31Z" fill="#F2F2F2"/>
<path d="M105.873 102.925C105.828 102.925 105.782 102.923 105.735 102.92C104.793 102.869 103.921 102.304 103.142 101.241C102.776 100.74 102.589 100.17 102.217 99.0315C102.159 98.8561 101.878 97.966 101.707 96.7412C101.595 95.9409 101.609 95.6063 101.768 95.3107C101.943 94.9815 102.228 94.7519 102.547 94.5971C102.533 94.4909 102.545 94.3816 102.591 94.27C102.779 93.8076 103.28 93.8683 103.552 93.8975C103.689 93.9148 103.86 93.9376 104.045 93.9278C104.336 93.9138 104.492 93.8271 104.728 93.6972C104.955 93.5726 105.236 93.4178 105.654 93.3322C106.477 93.1601 107.167 93.394 107.395 93.4708C108.591 93.8704 109.181 94.8028 109.864 95.8825C110 96.099 110.468 96.8874 110.776 97.9681C110.999 98.7478 110.967 99.0943 110.9 99.3521C110.764 99.8816 110.443 100.185 109.626 100.854C108.774 101.555 108.346 101.906 107.979 102.119C107.123 102.614 106.586 102.925 105.873 102.925Z" fill="#F2F2F2"/>
<path d="M68.3817 51.7735L17.2809 42.1067L17.0757 45.8089L67.7661 57.9438L68.3817 51.7735Z" fill="#95D1B7"/>
<path d="M17.8967 42.7238L17.2811 42.1068C17.2811 42.1068 14.6131 40.8728 14.6131 40.6671C14.6131 40.5383 10.6736 39.201 7.72606 38.2184C6.07993 37.6696 4.34151 38.7555 4.10711 40.4782L3.73775 43.1928C3.5169 44.816 4.73892 46.277 6.3722 46.3425L13.587 46.6317L17.0758 45.809L17.8967 42.7238Z" fill="#95D1B7"/>
<path d="M68.279 52.9049L68.4009 52.3925L17.2674 42.5953L17.1782 43.2381L68.279 52.9049Z" fill="#3F3D56"/>
<path d="M68.1619 53.8777L68.279 53.3162L17.2118 43.6094L17.1782 44.2664L68.1619 53.8777Z" fill="#3F3D56"/>
<path d="M68.0449 55.0437L68.074 54.1388L17.1719 44.3477L17.1784 44.8833L68.0449 55.0437Z" fill="#3F3D56"/>
<path d="M67.9088 56.398L67.869 55.5787L17.0979 45.0859L17.0542 45.2868L67.9088 56.398Z" fill="#3F3D56"/>
<path d="M67.9076 57.219L67.8687 56.607L17.1739 45.4253L17.1284 45.6257L67.9076 57.219Z" fill="#3F3D56"/>
<path d="M38.5447 23.0043L41.0874 21.5933L42.1902 44.1635L41.8057 46.9401C41.8057 46.9401 35.3863 29.2002 38.5447 23.0043Z" fill="#3F3D56"/>
<path d="M47.2438 15.9859C50.7574 15.9859 53.6057 13.1312 53.6057 9.60987C53.6057 6.08851 50.7574 3.23389 47.2438 3.23389C43.7302 3.23389 40.8818 6.08851 40.8818 9.60987C40.8818 13.1312 43.7302 15.9859 47.2438 15.9859Z" fill="#A0616A"/>
<path d="M41.8053 13.4148L43.3262 14.6317L41.6 8.06724C41.6 8.06724 46.4228 7.9644 46.8333 5.2906C46.8333 5.2906 50.6299 5.18776 51.656 5.18776C52.6821 5.18776 53.1451 11.9924 53.1451 11.9924C53.1451 11.9924 55.1448 6.42183 53.0926 3.54235C51.0403 0.662873 51.7586 2.41113 51.3482 1.38274C50.9377 0.35436 46.7306 -0.59143 44.0627 0.457198C41.3948 1.50583 41.2922 3.00063 40.4713 3.01439C39.6504 3.02816 36.7773 7.1417 39.4452 10.4325C42.1131 13.7234 41.8053 13.4148 41.8053 13.4148Z" fill="#2F2E41"/>
<path d="M61.2414 55.2554C61.9955 54.6524 62.5512 53.9287 62.8643 53.2134L70.4099 47.9237L67.7934 44.3989L60.4209 50.1443C59.6554 50.2915 58.828 50.6738 58.0739 51.2768C56.3512 52.6543 55.6638 54.6617 56.5385 55.7604C57.4132 56.859 59.5188 56.6329 61.2414 55.2554Z" fill="#A0616A"/>
<path d="M32.3333 47.2093C31.7738 47.9969 31.4381 48.8459 31.3334 49.6199L25.5303 56.7853L29.0131 59.453L34.5248 51.8972C35.2203 51.5447 35.911 50.949 36.4705 50.1615C37.7487 48.3622 37.8588 46.2428 36.7163 45.4276C35.5739 44.6124 33.6115 45.4101 32.3333 47.2093Z" fill="#A0616A"/>
<path d="M58.8391 25.447C58.8391 25.447 60.6861 22.3618 62.5331 24.2129C63.9947 25.6777 72.0098 34.9984 75.2917 38.8251C76.1967 39.8803 76.6936 41.2249 76.6936 42.6164C76.6936 44.7688 75.5079 46.7453 73.6111 47.7548L63.354 53.2134L60.4809 48.8941L69.3055 42.5182L55.7607 35.1138L58.8391 25.447Z" fill="#E6E6E6"/>
<path d="M26.4057 53.8777L24.772 58.6637L29.4921 61.1318L33.0836 58.6637L35.341 53.4189L28.6712 51.465" fill="#E6E6E6"/>
<path d="M102.715 8.00684L87.2106 12.2277L89.4664 22.3103C88.737 21.8197 87.8596 21.533 86.9152 21.533C84.3829 21.533 82.3301 23.5904 82.3301 26.1282C82.3301 28.6661 84.3829 30.7235 86.9152 30.7235C89.4475 30.7235 91.5003 28.6661 91.5003 26.1282C91.5003 25.2461 91.248 24.425 90.818 23.7252L89.0295 15.7315L102.405 11.517L103.628 17.4716C102.894 16.971 102.008 16.6779 101.053 16.6779C98.5204 16.6779 96.4675 18.7353 96.4675 21.2732C96.4675 23.8111 98.5204 25.8684 101.053 25.8684C103.585 25.8684 105.638 23.8111 105.638 21.2732C105.638 20.3817 105.38 19.5523 104.942 18.8477L102.715 8.00684Z" fill="#95D1B7"/>
<path d="M117.92 17.4318C115.414 17.4318 113.383 19.4677 113.383 21.9793C113.383 22.6893 113.55 23.3585 113.839 23.9573L116.429 34.6635L117.899 34.3064L115.901 26.0474C116.51 26.3514 117.194 26.5268 117.92 26.5268C120.426 26.5268 122.458 24.4908 122.458 21.9793C122.458 19.4678 120.426 17.4318 117.92 17.4318Z" fill="#95D1B7"/>
<path d="M136.386 41.0284L133.815 30.7234L132.254 31.091L134.265 39.1515C133.647 38.8708 132.959 38.7095 132.232 38.7095C129.571 38.7095 127.414 40.8055 127.414 43.3909C127.414 45.9764 129.571 48.0723 132.232 48.0723C134.892 48.0723 137.049 45.9764 137.049 43.3909C137.049 42.5281 136.805 41.7225 136.386 41.0284Z" fill="#95D1B7"/>
</svg>
