<svg width="114" height="251" viewBox="0 0 114 251" fill="none" xmlns="http://www.w3.org/2000/svg">
<g clip-path="url(#clip0_29_8245)">
<path d="M41.0144 38.8165L56.9033 23.2944L55.2712 15.4847C54.6037 8.43929 46.6357 3.70944 47.6157 1.573L36.415 6.09416L41.0144 38.8165Z" fill="#2F2E41"/>
<path d="M91.3124 243.729C91.5067 243.737 91.6991 243.686 91.8635 243.582C92.0279 243.477 92.1563 243.325 92.2314 243.145C92.3064 242.965 92.3245 242.766 92.2831 242.575C92.2417 242.384 92.1429 242.211 92.0001 242.078L91.9351 241.819C91.9436 241.798 91.9522 241.778 91.9609 241.757C92.1567 241.293 92.4848 240.897 92.9039 240.62C93.3231 240.342 93.8147 240.195 94.3169 240.197C94.8191 240.199 95.3095 240.35 95.7266 240.63C96.1437 240.911 96.4689 241.309 96.6612 241.774C97.43 243.632 98.4088 245.493 98.6498 247.457C98.7559 248.325 98.7111 249.205 98.5174 250.058C100.323 246.106 101.261 241.811 101.267 237.464C101.267 236.373 101.207 235.283 101.086 234.199C100.986 233.31 100.847 232.428 100.67 231.552C99.7021 226.798 97.6242 222.342 94.6069 218.551C93.1466 217.752 91.9655 216.522 91.223 215.029C90.954 214.492 90.7639 213.918 90.6586 213.327C90.8233 213.349 91.2797 210.831 91.1555 210.677C91.3851 210.327 91.796 210.154 92.0467 209.813C93.2937 208.116 95.0117 208.412 95.9086 210.718C97.8246 211.688 97.8431 213.297 96.6675 214.844C95.9196 215.829 95.8168 217.161 95.1605 218.215C95.2281 218.302 95.2983 218.386 95.3658 218.472C96.6 220.065 97.6757 221.775 98.5775 223.577C98.3582 221.558 98.6199 219.515 99.3411 217.616C100.072 215.847 101.442 214.357 102.649 212.827C102.968 212.417 103.401 212.11 103.894 211.946C104.387 211.782 104.917 211.769 105.418 211.907C105.918 212.046 106.366 212.33 106.706 212.724C107.045 213.118 107.261 213.604 107.325 214.121C107.328 214.143 107.33 214.166 107.332 214.189C107.153 214.29 106.978 214.398 106.806 214.512C106.59 214.656 106.423 214.863 106.327 215.104C106.23 215.345 106.208 215.611 106.264 215.865C106.321 216.119 106.452 216.35 106.641 216.528C106.83 216.706 107.069 216.822 107.325 216.862L107.351 216.866C107.287 217.514 107.175 218.156 107.014 218.787C108.561 224.792 105.22 226.98 100.448 227.078C100.343 227.132 100.24 227.187 100.135 227.238C101.041 229.814 101.609 232.497 101.826 235.22C101.948 236.827 101.941 238.441 101.804 240.046L101.812 239.989C102.158 238.204 103.107 236.593 104.499 235.429C106.567 233.725 109.489 233.097 111.72 231.727C111.957 231.574 112.232 231.493 112.514 231.492C112.796 231.492 113.072 231.572 113.31 231.723C113.548 231.875 113.737 232.091 113.857 232.348C113.976 232.604 114.019 232.889 113.982 233.169L113.973 233.229C113.641 233.365 113.317 233.521 113.004 233.698C112.824 233.799 112.649 233.907 112.477 234.021C112.262 234.165 112.095 234.372 111.998 234.613C111.901 234.855 111.88 235.12 111.936 235.374C111.992 235.628 112.123 235.859 112.312 236.037C112.502 236.215 112.74 236.331 112.996 236.371L113.023 236.375C113.041 236.377 113.058 236.38 113.077 236.383C112.508 237.744 111.711 238.997 110.719 240.087C109.751 245.33 105.594 245.827 101.148 244.3H101.145C100.657 246.427 99.9504 248.498 99.036 250.478H91.5012C91.4742 250.394 91.4499 250.308 91.4256 250.224C92.123 250.268 92.8232 250.226 93.5105 250.099C92.9514 249.411 92.3924 248.717 91.8334 248.029C91.8209 248.016 91.8092 248.002 91.7982 247.988C91.5147 247.636 91.2284 247.286 90.9448 246.934L90.9447 246.934C90.9296 245.854 91.0533 244.777 91.3124 243.729Z" fill="#F2F2F2"/>
<path d="M30.5143 219.008L31.7093 227.453V227.474L32.104 230.284L32.7441 234.795V234.8L33.0105 236.7L33.4106 239.526L36.9844 239.451L38.051 239.424L38.6113 239.413L38.5578 236.919L38.4244 230.305L38.1844 218.847H38.1363L37.0697 218.869L32.8081 218.96L31.7411 218.981L30.5143 219.008Z" fill="#A0616A"/>
<path d="M22.1997 248.195C22.2139 248.814 22.4715 249.401 22.9164 249.829C23.3612 250.258 23.9569 250.492 24.5733 250.48L26.2801 250.443L27.3469 250.421L31.6086 250.336L32.6807 250.314L34.9102 250.266L36.6117 246.531L36.9478 248.131V248.136L37.3851 250.213L38.0092 250.202L41.2842 250.132L39.9187 236.973L38.5586 236.919L38.0625 236.898L36.9958 236.855L33.0168 236.7H33.0114L32.734 236.689L31.6673 236.647L31.2246 236.63L31.3046 240.366L27.3789 243.208L26.3068 243.983L23.1652 246.258C22.8601 246.478 22.613 246.77 22.4448 247.107C22.2767 247.445 22.1926 247.818 22.1997 248.195Z" fill="#2F2E41"/>
<path d="M83.2262 207.034L87.7566 214.251L87.7654 214.271L89.2698 216.673L91.6916 220.528L91.6941 220.533L92.7114 222.157L94.2275 224.572L97.4584 223.038L98.421 222.577L98.9277 222.337L97.8632 220.083L95.0471 214.101L90.1608 203.742L90.1169 203.762L89.1519 204.219L85.2997 206.05L84.3346 206.507L83.2262 207.034Z" fill="#A0616A"/>
<path d="M87.5266 237.082C87.7914 237.641 88.2659 238.071 88.8463 238.28C89.4267 238.488 90.0658 238.458 90.6237 238.195L92.1662 237.46L93.1311 237.003L96.9857 235.178L97.9555 234.718L99.9706 233.76L100.002 229.653L100.96 230.976L100.963 230.981L102.208 232.697L102.773 232.431L105.733 231.024L99.1266 219.574L97.8634 220.083L97.402 220.267L96.411 220.665L92.7162 222.155L92.7114 222.158L92.4539 222.262L91.4628 222.66L91.0522 222.827L92.6469 226.203L90.2216 230.406L89.5592 231.554L87.6185 234.918C87.43 235.245 87.3231 235.612 87.3071 235.989C87.2911 236.366 87.3664 236.741 87.5266 237.082Z" fill="#2F2E41"/>
<path d="M8.58243 107.092L19.0117 90.0248L13.4645 84.6803L3.95936 104.371C3.11518 104.513 2.33529 104.914 1.72554 105.517C1.1158 106.119 0.705742 106.896 0.551035 107.741C0.39633 108.586 0.504465 109.458 0.860765 110.239C1.21707 111.02 1.80429 111.672 2.54269 112.107C3.28109 112.541 4.13491 112.738 4.98826 112.669C5.84161 112.6 6.65315 112.269 7.31272 111.721C7.97228 111.174 8.44792 110.436 8.67507 109.608C8.90222 108.779 8.86988 107.901 8.58243 107.092Z" fill="#A0616A"/>
<path d="M40.9277 52.8661L36.2184 48.2549C36.2184 48.2549 32.1002 46.9792 28.2979 53.5731C24.4956 60.1669 16.15 78.0878 16.15 78.0878L13.0199 81.082L12.609 82.1064L9.88151 84.6536L10.4088 85.8952L7.22535 86.8715L16.5793 95.2936L21.3622 90.1993L21.3817 87.168L23.4589 86.28L25.508 84.576L26.245 81.7768L40.9277 52.8661Z" fill="#2F2E41"/>
<path d="M59.6211 66.2951V93.3405L28.2614 87.6904L36.2059 63.3584L59.6211 66.2951Z" fill="#A0616A"/>
<path d="M28.6812 85L62.5497 89.1952L66.3128 118.561L69.6579 166.806L96 208.758L83.4561 211.694L49.5877 170.582L42.4795 132.438L40.3888 226.797L29.5175 227.216L18.6461 132.405C18.6461 132.405 19.0643 87.9366 28.6812 85Z" fill="#2F2E41"/>
<path d="M43.3147 32.7335L56.6949 28.9579L62.9668 37.7677L56.9039 89.9976C56.9039 89.9976 34.325 73.2169 31.8162 88.7391L30.7709 68.3925C30.7709 68.3925 29.6383 54.9679 32.0862 53.9191C34.534 52.8703 43.7329 39.8653 43.7329 39.8653L43.3147 32.7335Z" fill="#95D1B7"/>
<path d="M65.8931 31.8945L70.7214 36.7387L77.1826 84.3341L60.9316 100.639C60.9316 100.639 43.3142 69.2315 55.858 43.2214L58.1974 31.0692L65.8931 31.8945Z" fill="#2F2E41"/>
<path d="M43.7328 38.1627L25.7532 54.9681L19.8994 101.954L34.1158 98.5979L32.8614 63.778L45.4053 41.124L43.7328 38.1627Z" fill="#2F2E41"/>
<path d="M45.5651 140.969H96.2575C97.5193 140.968 98.7289 140.464 99.6211 139.569C100.513 138.674 101.015 137.46 101.017 136.194V116.579C101.012 112.034 99.2098 107.677 96.0067 104.463C92.8036 101.25 88.4607 99.4419 83.9309 99.4368H64.1061C57.9287 99.4438 52.0063 101.909 47.6382 106.292C43.2701 110.674 40.813 116.616 40.806 122.814V136.194C40.8074 137.46 41.3093 138.674 42.2015 139.569C43.0937 140.464 44.3033 140.968 45.5651 140.969Z" fill="#95D1B7"/>
<path d="M77.955 100.238L73.4176 76.6054L72.1156 69.8239C71.9637 69.0325 73.1724 68.6936 73.3252 69.4893L77.8625 93.1219L79.1646 99.9034C79.3165 100.695 78.1078 101.034 77.955 100.238Z" fill="#95D1B7"/>
<path d="M15.0569 35.1373L21.1532 36.6014L21.9895 36.8028L42.9754 41.8496C43.7006 41.8499 44.396 42.139 44.9087 42.6535C45.4215 43.168 45.7097 43.8657 45.71 44.5932V72.2646C45.7088 72.9915 45.4202 73.6883 44.9075 74.2019C44.3948 74.7155 43.6999 75.004 42.9754 75.0041L29.4364 71.7486L28.6001 71.5472L15.0569 68.2918C14.3326 68.291 13.6382 68.0023 13.1256 67.4888C12.6131 66.9754 12.3242 66.279 12.3224 65.5523V37.881C12.3234 37.1536 12.6118 36.4563 13.1244 35.942C13.637 35.4277 14.332 35.1383 15.0569 35.1373Z" fill="#E6E6E6"/>
<path d="M13.1376 55.2532V38.4683C13.1375 38.1383 13.2022 37.8114 13.328 37.5065C13.4538 37.2016 13.6383 36.9245 13.8709 36.6911C14.1035 36.4578 14.3797 36.2727 14.6836 36.1464C14.9875 36.0202 15.3133 35.9553 15.6422 35.9554L21.1532 37.6251L21.9894 37.881L37.778 42.6677C38.7125 42.6677 39.6379 42.8524 40.5014 43.2112C41.3648 43.57 42.1493 44.0959 42.8102 44.759C43.471 45.422 43.9952 46.2091 44.3528 47.0754C44.7105 47.9417 44.8945 48.8702 44.8945 49.8079V71.6773C44.8947 72.0073 44.83 72.3341 44.7041 72.6391C44.5783 72.944 44.3938 73.2211 44.1612 73.4545C43.9286 73.6878 43.6525 73.8729 43.3485 73.9992C43.0446 74.1254 42.7189 74.1903 42.3899 74.1902L29.4363 70.8886L28.6 70.6746L17.1809 67.7632C13.4387 67.7632 12.6108 65.9802 12.6108 63.2366C12.6108 61.0509 13.1376 58.2486 13.1376 55.2532Z" fill="white"/>
<path d="M28.6009 52.4298V71.5472L29.4371 71.7486V52.8493H44.8953C45.0062 52.8493 45.1126 52.8051 45.191 52.7265C45.2694 52.6478 45.3135 52.5411 45.3135 52.4298C45.3135 52.3186 45.2694 52.2119 45.191 52.1332C45.1126 52.0545 45.0062 52.0103 44.8953 52.0103H29.019C28.964 52.0101 28.9096 52.0208 28.8587 52.0418C28.8079 52.0629 28.7618 52.0938 28.7229 52.1328C28.684 52.1718 28.6532 52.2181 28.6323 52.2691C28.6113 52.3201 28.6007 52.3747 28.6009 52.4298Z" fill="#E6E6E6"/>
<path d="M12.3231 46.4601V47.1145C12.3963 47.1744 12.4879 47.2071 12.5823 47.2068H21.5721C21.6271 47.207 21.6815 47.1963 21.7323 47.1753C21.7832 47.1543 21.8293 47.1234 21.8682 47.0844C21.9071 47.0454 21.9378 46.9991 21.9588 46.9481C21.9797 46.8971 21.9904 46.8425 21.9902 46.7873V36.8028L21.154 36.6014V46.3678H12.5823C12.4879 46.3676 12.3963 46.4002 12.3231 46.4601Z" fill="#E6E6E6"/>
<path d="M29.3067 54.7582C27.9211 54.7582 26.7979 53.6312 26.7979 52.2411C26.7979 50.8509 27.9211 49.724 29.3067 49.724C30.6922 49.724 31.8154 50.8509 31.8154 52.2411C31.8154 53.6312 30.6922 54.7582 29.3067 54.7582Z" fill="#95D1B7"/>
<path d="M47.9155 29.0014C40.7992 29.0014 35.0302 23.2134 35.0302 16.0734C35.0302 8.93342 40.7992 3.14533 47.9155 3.14533C55.0318 3.14533 60.8008 8.93342 60.8008 16.0734C60.8008 23.2134 55.0318 29.0014 47.9155 29.0014Z" fill="#A0616A"/>
<path d="M32.4724 16.5024L33.4132 19.0908L34.8809 18.7803C34.759 17.8589 34.8186 16.9225 35.0565 16.0241C35.2847 16.8702 35.7455 17.6348 36.3861 18.2308L40.9604 16.5569C47.9683 16.5066 49.4067 27.4518 50.6318 38.8165L63.6774 28.5593C63.6531 27.8692 63.7306 27.1794 63.9074 26.512C64.0375 27.0016 64.2496 27.4655 64.5346 27.8839L66.1025 26.6505L64.89 11.8331C64.7336 9.92377 64.1547 8.07345 63.1955 6.41695C62.2362 4.76045 60.9208 3.33949 59.3449 2.25758C57.7691 1.17568 55.9726 0.460072 54.0863 0.162895C52.1999 -0.134281 50.2713 -0.00554485 48.4408 0.539726L40.3416 4.28182L37.6698 3.99655C33.0202 5.69559 30.779 11.8331 32.4724 16.5024Z" fill="#2F2E41"/>
<path d="M63.4787 99.227H83.3035C85.6964 99.2262 88.0627 99.731 90.2484 100.708C92.4341 101.686 94.3901 103.114 95.9893 104.9C92.857 102.056 88.7824 100.482 84.5579 100.486H64.7331C58.5557 100.493 52.6333 102.958 48.2652 107.34C43.8971 111.723 41.44 117.665 41.433 123.863V137.243C41.4321 138.202 41.7206 139.138 42.2605 139.929C41.6193 139.492 41.0945 138.903 40.7316 138.216C40.3688 137.528 40.1789 136.762 40.1786 135.984V122.604C40.1856 116.407 42.6427 110.464 47.0108 106.082C51.3789 101.699 57.3013 99.234 63.4787 99.227Z" fill="#3F3D56"/>
<path d="M72.0091 37.432C70.724 36.3167 68.662 36.8008 67.4976 37.8595C66.0395 39.1853 65.4352 41.1627 64.9518 43.0133C63.8277 47.5088 63.1985 52.1144 63.0758 56.7475C62.9041 61.3975 63.0856 66.0518 63.3417 70.6951C63.6067 75.5005 63.9098 80.304 64.1968 85.1081L65.18 101.569C65.2284 102.378 63.9738 102.375 63.9256 101.569C63.3188 91.4106 62.6787 81.2537 62.1095 71.0933C61.5698 61.4597 61.2865 51.5552 63.8795 42.1661C64.4635 40.0513 65.3327 37.8128 67.1931 36.5064C68.8818 35.3205 71.2851 35.1439 72.8961 36.542C73.5077 37.0728 72.6172 37.9597 72.0091 37.432Z" fill="#95D1B7"/>
<path d="M47.7056 59.7079L65.5605 72.6162L62.1852 80.424L44.1571 64.4521C43.2376 64.6674 42.2743 64.5935 41.398 64.2406C40.5217 63.8877 39.7749 63.2728 39.2589 62.4793C38.7429 61.6859 38.4828 60.7524 38.5138 59.8055C38.5448 58.8587 38.8655 57.9443 39.4322 57.1866C39.999 56.4288 40.7844 55.8644 41.6819 55.5699C42.5794 55.2755 43.5454 55.2652 44.4489 55.5406C45.3524 55.8159 46.1495 56.3635 46.7321 57.1091C47.3148 57.8546 47.6546 58.7619 47.7056 59.7079Z" fill="#A0616A"/>
<path d="M71.1557 37.0687C71.1557 37.0687 66.4667 37.8528 65.9654 46.2399C65.4642 54.6269 65.5731 70.4625 65.5731 70.4625L61.1293 66.9972L56.6662 65.7252L53.5006 73.6395L55.9927 77.822L58.8606 79.2108L59.8985 78.5785L61.5173 80.8184C63.8731 82.0464 66.61 82.3163 69.159 81.572C71.7081 80.8277 73.8731 79.1264 75.2043 76.8218L76.815 74.9163L77.9961 72.22L77.344 69.0945L77.8931 46.5601C77.9443 44.4598 77.3153 42.3994 76.1006 40.6881C74.8858 38.9768 73.1507 37.7069 71.1557 37.0687Z" fill="#2F2E41"/>
<path d="M8.96898 115.116L17.7186 111.724C18.1744 111.547 18.5416 111.195 18.7395 110.747C18.9374 110.298 18.9498 109.789 18.7741 109.331L12.3139 92.5569C12.1372 92.0995 11.7868 91.7311 11.3396 91.5326C10.8925 91.334 10.3852 91.3215 9.92887 91.4979L1.1793 94.89C0.723412 95.0673 0.356266 95.4188 0.158384 95.8675C-0.0394993 96.3161 -0.0519485 96.8251 0.123766 97.2829L6.58397 114.057C6.76071 114.514 7.11107 114.883 7.55819 115.081C8.00532 115.28 8.51269 115.292 8.96898 115.116Z" fill="#3F3D56"/>
<path d="M1.83593 101.727C1.85523 101.72 1.8767 101.72 1.89562 101.728C1.91453 101.737 1.92935 101.752 1.93682 101.772L2.83671 104.108C2.84403 104.128 2.84343 104.149 2.83503 104.168C2.82663 104.187 2.81113 104.202 2.7919 104.209C2.77267 104.217 2.75127 104.216 2.7324 104.208C2.71352 104.2 2.6987 104.184 2.69116 104.165L1.79128 101.828C1.78384 101.809 1.78436 101.787 1.79273 101.768C1.8011 101.749 1.81664 101.734 1.83593 101.727Z" fill="#3F3D56"/>
<path d="M0.287971 97.2195L6.74807 113.993C6.90081 114.39 7.19821 114.713 7.57992 114.898C7.96164 115.083 8.39908 115.115 8.8035 114.988C8.81578 114.984 8.82844 114.98 8.84095 114.975C8.86284 114.968 8.88444 114.96 8.90629 114.952C8.90629 114.952 8.98409 114.915 9.12615 114.847C9.26967 114.779 9.4784 114.679 9.73829 114.554C9.81632 114.516 9.8986 114.476 9.98514 114.434C10.1578 114.351 10.3474 114.259 10.5503 114.159C10.6314 114.12 10.715 114.078 10.8005 114.036C11.2374 113.822 11.726 113.58 12.2398 113.321C12.3268 113.278 12.4144 113.234 12.5026 113.189C12.5256 113.178 12.5492 113.166 12.5726 113.154C12.9387 112.969 13.3143 112.777 13.6903 112.581L13.7602 112.545C14.4078 112.208 15.0554 111.864 15.657 111.53C16.1199 111.273 16.5554 111.023 16.9427 110.788C17.0688 110.712 17.1895 110.637 17.3048 110.564C17.3274 110.55 17.3499 110.536 17.372 110.522C18.1834 110.004 18.6861 109.59 18.6107 109.394L12.1506 92.6204C12.0716 92.4153 11.9532 92.2278 11.802 92.0686C11.6508 91.9095 11.4698 91.7817 11.2694 91.6927C11.0689 91.6037 10.853 91.5552 10.6339 91.55C10.4148 91.5447 10.1968 91.5828 9.9924 91.6621L9.06304 92.0224C8.99191 92.0507 8.93403 92.1049 8.90093 92.1741C8.86782 92.2433 8.86193 92.3225 8.88443 92.3959C8.88713 92.4061 8.88984 92.4164 8.89182 92.427C8.90487 92.5051 8.89032 92.5854 8.85067 92.654C8.81102 92.7225 8.74876 92.775 8.67464 92.8024L2.98275 95.0091C2.90954 95.0388 2.82826 95.042 2.75298 95.018C2.67769 94.994 2.61312 94.9444 2.5704 94.8777C2.56479 94.8686 2.55991 94.8591 2.55502 94.8497C2.52249 94.7802 2.46505 94.7256 2.39416 94.6967C2.32327 94.6678 2.24414 94.6667 2.17253 94.6938L1.24316 95.0541C1.03872 95.1333 0.851824 95.2522 0.693174 95.4039C0.534525 95.5556 0.407219 95.7372 0.31852 95.9383C0.229822 96.1393 0.181473 96.356 0.176229 96.5758C0.170988 96.7956 0.208958 97.0144 0.287971 97.2195Z" fill="#95D1B7"/>
<path d="M13.3868 95.2344C13.4061 95.227 13.4276 95.2275 13.4465 95.2359C13.4654 95.2443 13.4803 95.2599 13.4877 95.2792L13.7127 95.8634C13.72 95.8827 13.7194 95.9042 13.711 95.9231C13.7026 95.942 13.6871 95.9567 13.6679 95.9642C13.6486 95.9717 13.6273 95.9712 13.6084 95.9629C13.5895 95.9545 13.5747 95.9391 13.5671 95.9198L13.3422 95.3357C13.3347 95.3163 13.3353 95.2948 13.3436 95.2758C13.352 95.2568 13.3675 95.2419 13.3868 95.2344Z" fill="#3F3D56"/>
<path d="M14.0616 96.9869C14.081 96.9794 14.1024 96.9799 14.1213 96.9883C14.1403 96.9967 14.1551 97.0123 14.1625 97.0317L14.5984 98.1635C14.6058 98.1828 14.6051 98.2043 14.5967 98.2232C14.5883 98.242 14.5728 98.2568 14.5536 98.2643C14.5344 98.2717 14.513 98.2713 14.4941 98.2629C14.4752 98.2546 14.4604 98.2392 14.4529 98.2199L14.017 97.0881C14.0096 97.0687 14.0101 97.0472 14.0185 97.0282C14.0268 97.0093 14.0424 96.9944 14.0616 96.9869Z" fill="#3F3D56"/>
<path d="M14.6805 98.5933C14.6998 98.5858 14.7212 98.5864 14.7401 98.5948C14.7591 98.6032 14.7739 98.6188 14.7814 98.6381L15.2173 99.7699C15.221 99.7795 15.2228 99.7898 15.2226 99.8001C15.2224 99.8104 15.2202 99.8206 15.2161 99.83C15.2119 99.8395 15.206 99.848 15.1985 99.8551C15.1911 99.8623 15.1823 99.8678 15.1728 99.8716C15.1632 99.8753 15.1529 99.8771 15.1427 99.8768C15.1324 99.8765 15.1222 99.8742 15.1129 99.87C15.1035 99.8658 15.095 99.8598 15.0879 99.8523C15.0809 99.8448 15.0753 99.836 15.0717 99.8263L14.6358 98.6945C14.6284 98.6752 14.6289 98.6536 14.6373 98.6347C14.6456 98.6157 14.6612 98.6008 14.6805 98.5933Z" fill="#3F3D56"/>
<path d="M9.26431 92.238L10.5009 91.7586C10.5511 91.7392 10.6075 91.7641 10.6268 91.8143C10.6462 91.8646 10.6212 91.9211 10.5709 91.9405L9.33437 92.4199C9.28415 92.4394 9.22776 92.4145 9.20842 92.3642C9.18907 92.314 9.21409 92.2575 9.26431 92.238Z" fill="#3F3D56"/>
<path d="M2.05489 95.2317C1.96871 95.2317 1.89885 95.1616 1.89885 95.0751C1.89885 94.9887 1.96871 94.9186 2.05489 94.9186C2.14107 94.9186 2.21094 94.9887 2.21094 95.0751C2.21094 95.1616 2.14107 95.2317 2.05489 95.2317Z" fill="#3F3D56"/>
<path d="M1.6545 95.3869C1.56832 95.3869 1.49846 95.3168 1.49846 95.2303C1.49846 95.1439 1.56832 95.0738 1.6545 95.0738C1.74068 95.0738 1.81055 95.1439 1.81055 95.2303C1.81055 95.3168 1.74068 95.3869 1.6545 95.3869Z" fill="#3F3D56"/>
<path d="M1.25412 95.5421C1.16794 95.5421 1.09808 95.472 1.09808 95.3855C1.09808 95.299 1.16794 95.2289 1.25412 95.2289C1.3403 95.2289 1.41016 95.299 1.41016 95.3855C1.41016 95.472 1.3403 95.5421 1.25412 95.5421Z" fill="#3F3D56"/>
<path fill-rule="evenodd" clip-rule="evenodd" d="M7.33026 101.297C7.45467 101.62 7.68643 101.89 7.98636 102.061C8.28628 102.232 8.63595 102.294 8.97624 102.237L10.6059 106.468C10.62 106.505 10.6413 106.538 10.6684 106.567C10.6955 106.595 10.728 106.618 10.764 106.634C10.7999 106.65 10.8387 106.659 10.878 106.66C10.9173 106.661 10.9564 106.654 10.9931 106.64C11.0297 106.626 11.0633 106.604 11.0917 106.577C11.1202 106.55 11.143 106.517 11.159 106.481C11.1749 106.445 11.1835 106.406 11.1845 106.367C11.1854 106.327 11.1786 106.288 11.1644 106.251L9.53483 102.02C9.77334 101.867 9.96359 101.649 10.0835 101.391C10.2034 101.133 10.2479 100.847 10.2121 100.565C10.1762 100.283 10.0613 100.017 9.88084 99.7982C9.70033 99.5791 9.46157 99.4159 9.19231 99.3275C8.92305 99.2392 8.63432 99.2293 8.35968 99.299C8.08503 99.3687 7.83573 99.5152 7.64074 99.7214C7.44575 99.9276 7.31307 100.185 7.25811 100.464C7.20315 100.743 7.22817 101.032 7.33026 101.297Z" fill="white"/>
<path d="M24.4227 45.2893C24.5664 45.6621 24.834 45.9738 25.1803 46.1716C25.5265 46.3693 25.9303 46.441 26.3231 46.3745L28.2046 51.2598C28.2209 51.3024 28.2454 51.3413 28.2768 51.3744C28.3081 51.4075 28.3456 51.434 28.3871 51.4525C28.4287 51.471 28.4735 51.4811 28.5189 51.4822C28.5643 51.4833 28.6096 51.4755 28.652 51.459C28.6944 51.4426 28.7331 51.4179 28.766 51.3864C28.7989 51.3549 28.8253 51.3173 28.8436 51.2755C28.862 51.2338 28.8719 51.1889 28.873 51.1433C28.874 51.0977 28.866 51.0523 28.8496 51.0098L26.9681 46.1245C27.2434 45.9474 27.4631 45.6955 27.6015 45.3982C27.7399 45.1009 27.7914 44.7702 27.75 44.4447C27.7086 44.1192 27.576 43.8121 27.3676 43.5592C27.1591 43.3062 26.8835 43.1178 26.5726 43.0158C26.2617 42.9138 25.9284 42.9024 25.6113 42.9829C25.2942 43.0634 25.0064 43.2325 24.7812 43.4705C24.5561 43.7086 24.4029 44.0059 24.3395 44.3278C24.276 44.6498 24.3049 44.9831 24.4227 45.2893Z" fill="#95D1B7"/>
</g>
<defs>
<clipPath id="clip0_29_8245">
<rect width="114" height="251" fill="white" transform="matrix(-1 0 0 1 114 0)"/>
</clipPath>
</defs>
</svg>
