<svg width="154" height="154" viewBox="0 0 154 154" fill="none" xmlns="http://www.w3.org/2000/svg">
<g clip-path="url(#clip0_104_1580)">
<path d="M122.854 72.558C127.256 75.382 131.379 79.1636 135.242 83.8278V90.9594C133.357 90.3211 126.163 87.6754 123.323 83.491C120.04 78.6551 119.456 71.3143 122.19 69.4764C122.903 68.9987 123.768 68.9393 124.717 69.2012C127.709 71.3429 130.572 73.9403 133.306 76.9668C134.275 78.4482 134.874 80.3346 135.242 82.2408V82.331C131.704 77.4313 127.546 74.2528 122.854 72.558Z" fill="#95D1B7"/>
<path d="M122.633 28.7554C127.035 31.5794 131.158 35.361 135.02 40.0252V41.654C134.651 41.5286 134.08 41.3283 133.377 41.0531C130.218 37.3266 126.617 34.8173 122.633 33.3778C125.42 35.1651 128.097 37.3376 130.665 39.8755C127.948 38.5747 124.772 36.6465 123.102 34.1856C122.925 33.9259 122.757 33.6639 122.597 33.3998C119.788 28.7598 119.602 23.6708 122.19 21.9319C124.925 20.0939 129.718 22.6979 133.001 27.5316C134.899 30.3292 135.432 34.6698 135.54 37.8285C135.366 38.0574 135.193 38.2907 135.02 38.5284C131.483 33.6287 127.325 30.4503 122.633 28.7554Z" fill="#95D1B7"/>
<path d="M147.691 54.7739V54.7761C147.377 55.6412 146.983 56.515 146.514 57.3757C145.817 58.6567 144.747 59.8453 143.534 60.9085C142.236 62.0487 140.771 63.0436 139.424 63.8514C137.544 64.9806 135.892 65.7466 135.241 66.0371V65.3438C138.977 60.9195 142.95 57.314 147.186 54.5978C142.687 56.2223 138.681 59.2158 135.241 63.7788V60.7214C138.977 56.2971 142.95 52.6917 147.186 49.9755C142.687 51.5999 138.681 54.5934 135.241 59.1564V56.099C138.929 51.7342 142.844 48.1661 147.018 45.4631C148.974 47.0281 149.144 50.8031 147.691 54.7739Z" fill="#95D1B7"/>
<path d="M38.2007 85.6749C55.7547 85.6749 69.9849 71.515 69.9849 54.048C69.9849 36.5809 55.7547 22.421 38.2007 22.421C20.6468 22.421 6.4165 36.5809 6.4165 54.048C6.4165 71.515 20.6468 85.6749 38.2007 85.6749Z" fill="#F6F7FB"/>
<path d="M137.784 104.754C140.458 106.995 141.463 110.184 140.029 111.877C138.596 113.57 135.267 113.125 132.593 110.883C131.513 110.002 130.66 108.876 130.106 107.6L118.9 97.9632L123.557 92.8268L134.11 102.872C135.468 103.199 136.728 103.844 137.784 104.754Z" fill="#A0616A"/>
<path d="M128.735 97.6246L115.036 80.1201L102.06 56.4897L101.724 89.2626L121.173 105.158L128.735 97.6246Z" fill="#2F2E41"/>
<path d="M69.1416 49.4427L72.28 35.2441L82.7697 35.7462L85.4623 46.0465L69.1416 49.4427Z" fill="#A0616A"/>
<path opacity="0.1" d="M69.1416 49.4427L72.28 35.2441L82.7697 35.7462L85.4623 46.0465L69.1416 49.4427Z" fill="black"/>
<path d="M77.2656 39.0539C83.7514 39.0539 89.0092 33.8221 89.0092 27.3684C89.0092 20.9146 83.7514 15.6829 77.2656 15.6829C70.7798 15.6829 65.522 20.9146 65.522 27.3684C65.522 33.8221 70.7798 39.0539 77.2656 39.0539Z" fill="#A0616A"/>
<path d="M72.0122 31.8812C72.0122 31.8812 70.8275 31.8697 68.3632 31.4138C65.8989 30.9578 70.1775 36.6876 70.1775 36.6876C58.5809 31.8693 62.2918 19.6478 62.2918 19.6478C50.5225 17.4081 55.4529 6.9973 55.4529 6.9973C55.4529 6.9973 59.3324 -0.452351 71.2585 0.0217014C83.1845 0.495753 77.5504 12.2 77.5504 12.2C85.3205 12.2146 86.1947 19.1826 86.1947 19.1826C86.1947 19.1826 83.3937 19.5306 78.3032 20.8161C73.2127 22.1017 72.0122 31.8812 72.0122 31.8812Z" fill="#2F2E41"/>
<path d="M71.5466 44.9709L71.0162 43.9431C71.0162 43.9431 61.5791 45.0316 60.0307 46.4684C58.4822 47.9052 54.9429 54.2885 54.9429 54.2885L62.6852 60.8919L71.5466 44.9709Z" fill="#A0616A"/>
<path d="M83.2573 44.7214C83.2573 44.7214 90.336 42.8426 94.3177 46.8047C98.2995 50.7667 102.945 58.0305 102.945 58.0305L102.724 63.7534L91.6632 58.4482L83.2573 44.7214Z" fill="#A0616A"/>
<path d="M85.0622 43.9432C85.0622 43.9432 94.3181 40.6415 100.291 47.6851C106.263 54.7288 108.033 76.9602 108.033 76.9602C108.033 76.9602 121.527 118.121 118.209 118.562C114.89 119.002 94.6411 120.219 94.6411 120.219L87.6819 75.4194L84.585 43.9432L85.0622 43.9432Z" fill="#2F2E41"/>
<path d="M63.7912 83.5637L61.5791 91.4878L91.6634 93.6889C91.6634 93.6889 90.5574 87.0647 91.6634 84.6539L63.7912 83.5637Z" fill="#A0616A"/>
<path d="M80.8247 135.07L82.152 154L98.8575 153.56L98.3002 134.41L80.8247 135.07Z" fill="#A0616A"/>
<path d="M54.7604 133.198L49.855 153.78L67.3434 153.662L71.7991 136.839L54.7604 133.198Z" fill="#A0616A"/>
<path d="M84.5849 43.9431H71.0163L60.0308 58.4706L62.4641 88.186C62.4641 88.186 67.9943 86.6452 75.7365 86.6452H92.3272C92.3272 86.6452 89.8939 78.9412 92.9908 75.8596C96.0877 72.778 93.8756 58.4706 93.8756 58.4706L84.5849 43.9431Z" fill="#95D1B7"/>
<path d="M60.4731 89.0665L48.0854 133.75C48.0854 133.75 66.3263 141.043 77.3358 138.937C88.3453 136.831 103.387 136.171 103.387 136.171L92.7695 90.8274L60.4731 89.0665Z" fill="#2F2E41"/>
<path d="M89.1184 105.415C91.7917 107.656 92.7967 110.845 91.3633 112.537C89.9298 114.23 86.6012 113.785 83.9273 111.543C82.8468 110.662 81.994 109.537 81.4404 108.26L70.2339 98.6235L74.8907 93.4871L85.4439 103.533C86.8023 103.859 88.0623 104.504 89.1184 105.415Z" fill="#A0616A"/>
<path d="M82.2817 97.6246L68.5821 80.1201L55.6065 56.4897L55.27 89.2626L74.7198 105.158L82.2817 97.6246Z" fill="#2F2E41"/>
<path d="M71.941 43.9432C71.941 43.9432 62.6851 40.6415 56.7125 47.6851C50.7398 54.7288 48.9702 76.9602 48.9702 76.9602C48.9702 76.9602 35.4765 118.121 38.7946 118.562C42.1127 119.002 62.3621 120.219 62.3621 120.219L69.3213 75.4194L72.4182 43.9432L71.941 43.9432Z" fill="#2F2E41"/>
<path d="M135.463 35.5789H135.021V112.178H135.463V35.5789Z" fill="#3F3D56"/>
<path d="M12.4706 114.159C16.8727 116.983 20.996 120.765 24.8583 125.429V132.561C22.9736 131.923 15.7799 129.277 12.9396 125.092C9.65687 120.257 9.07288 112.916 11.807 111.078C12.5193 110.6 13.3842 110.541 14.3332 110.803C17.3261 112.944 20.1886 115.542 22.9227 118.568C23.8916 120.05 24.4911 121.936 24.8583 123.842V123.932C21.3212 119.033 17.1624 115.854 12.4706 114.159Z" fill="#95D1B7"/>
<path d="M12.2495 70.3568C16.6516 73.1809 20.7749 76.9624 24.6372 81.6267V83.2555C24.2678 83.13 23.6971 82.9297 22.9936 82.6546C19.8348 78.9281 16.2335 76.4188 12.2495 74.9792C15.0367 76.7665 17.7134 78.9391 20.2816 81.477C17.5652 80.1761 14.3886 78.2479 12.7185 75.787C12.5415 75.5273 12.3734 75.2654 12.2141 75.0012C9.4048 70.3612 9.21897 65.2722 11.8071 63.5333C14.5412 61.6954 19.3348 64.2993 22.6176 69.133C24.5155 71.9306 25.0486 76.2713 25.157 79.4299C24.9823 79.6588 24.8097 79.8922 24.6372 80.1299C21.1001 75.2301 16.9413 72.0517 12.2495 70.3568Z" fill="#95D1B7"/>
<path d="M37.3085 96.3755V96.3777C36.9944 97.2427 36.6006 98.1166 36.1316 98.9772C35.4349 100.258 34.3642 101.447 33.152 102.51C31.8535 103.65 30.3891 104.645 29.0419 105.453C27.1616 106.582 25.5092 107.348 24.8589 107.639V106.945C28.5951 102.521 32.568 98.9156 36.8041 96.1994C32.3047 97.8239 28.2987 100.817 24.8589 105.38V102.323C28.5951 97.8987 32.568 94.2932 36.8041 91.577C32.3047 93.2015 28.2987 96.195 24.8589 100.758V97.7006C28.5464 93.3357 32.4618 89.7677 36.636 87.0647C38.5915 88.6297 38.7618 92.4047 37.3085 96.3755Z" fill="#95D1B7"/>
<path d="M25.0796 77.1804H24.6372V153.78H25.0796V77.1804Z" fill="#3F3D56"/>
</g>
<defs>
<clipPath id="clip0_104_1580">
<rect width="154" height="154" fill="white"/>
</clipPath>
</defs>
</svg>
