<svg width="154" height="154" viewBox="0 0 154 154" fill="none" xmlns="http://www.w3.org/2000/svg">
<g clip-path="url(#clip0_104_1525)">
<path d="M99.4925 103.822V102.609C99.5245 102.25 99.5245 101.89 99.4925 101.531V2.32137C99.4925 1.7057 99.2496 1.11525 98.8173 0.679913C98.385 0.244572 97.7986 0 97.1872 0C96.5758 0 95.9894 0.244572 95.5571 0.679913C95.1248 1.11525 94.8819 1.7057 94.8819 2.32137V101.531C94.8498 101.89 94.8498 102.25 94.8819 102.609V103.822L71.5444 151.904C72.0949 152.458 72.7484 152.898 73.4676 153.198C74.1868 153.498 74.9576 153.652 75.7361 153.652C76.5145 153.652 77.2854 153.498 78.0046 153.198C78.7238 152.898 79.3772 152.458 79.9277 151.904L94.8819 113.698V151.331C94.8819 151.947 95.1248 152.537 95.5571 152.973C95.9894 153.408 96.5758 153.652 97.1872 153.652C97.7986 153.652 98.385 153.408 98.8173 152.973C99.2496 152.537 99.4925 151.947 99.4925 151.331V113.698L114.447 151.904C114.997 152.458 115.651 152.898 116.37 153.198C117.089 153.498 117.86 153.652 118.638 153.652C119.417 153.652 120.188 153.498 120.907 153.198C121.626 152.898 122.28 152.458 122.83 151.904L99.4925 103.822Z" fill="#E6E6E6"/>
<path d="M116.199 148.142C115.797 144.611 115.904 141.041 116.517 137.541C117.125 134.057 118.218 130.677 119.764 127.501C121.334 124.278 123.372 121.309 125.812 118.691C130.789 113.368 137.207 109.63 144.272 107.94C144.702 107.837 145.134 107.744 145.569 107.658C146.053 107.562 146.133 108.33 145.651 108.425C138.695 109.834 132.301 113.265 127.261 118.295C123.435 122.159 120.522 126.841 118.739 131.994C116.956 137.146 116.348 142.637 116.961 148.059C117.018 148.553 116.256 148.636 116.199 148.142Z" fill="#E6E6E6"/>
<path d="M143.623 108.255C143.938 108.36 144.258 108.448 144.581 108.518C144.579 108.546 144.575 108.574 144.573 108.601L143.623 108.255Z" fill="#E6E6E6"/>
<path d="M152.473 106.684C151.935 107.156 151.332 107.547 150.683 107.845C148.879 108.681 146.864 108.939 144.91 108.584C144.803 108.564 144.691 108.544 144.583 108.519C144.607 108.297 144.629 108.074 144.656 107.854C144.831 106.378 145.114 104.907 145.765 103.58C146.524 102.029 147.862 100.68 149.54 100.305C151.216 99.9285 153.188 100.748 153.799 102.365C153.973 102.836 154.036 103.341 153.983 103.841C153.753 103.891 153.525 103.939 153.295 103.99C153.274 103.995 153.253 103.999 153.232 104.001C153.031 104.046 152.829 104.087 152.628 104.132C151.796 104.31 150.964 104.494 150.134 104.67C150.637 105.257 151.205 105.785 151.826 106.243C151.875 106.279 151.928 106.317 151.977 106.353C152.138 106.467 152.304 106.58 152.473 106.684Z" fill="#E6E6E6"/>
<path d="M135.747 110.19L133.905 112.166L133.406 112.702C133.379 112.643 133.35 112.581 133.323 112.522C132.386 110.48 131.892 108.259 131.875 106.009C131.859 103.759 132.319 101.532 133.225 99.4754C133.545 98.7666 133.919 98.0833 134.342 97.4315C135.255 97.9631 136.172 98.4942 137.086 99.0258C137.116 97.6316 136.866 96.2456 136.351 94.9511C138.249 93.0175 140.614 91.6152 143.213 90.8826C140.605 94.5829 142.483 99.8001 141.22 104.153C140.816 105.509 140.115 106.755 139.167 107.8C138.22 108.845 137.051 109.662 135.747 110.19Z" fill="#E6E6E6"/>
<path d="M120.28 128.12C120.076 127.972 119.877 127.819 119.686 127.66C118.026 126.298 116.659 124.609 115.67 122.697C114.681 120.784 114.091 118.688 113.935 116.538C113.825 114.777 114.017 113.01 114.502 111.314C114.522 111.326 114.539 111.335 114.558 111.347C115.472 111.878 116.389 112.41 117.303 112.941C117.344 111.11 116.9 109.302 116.017 107.701C116.75 106.416 117.664 105.244 118.729 104.222C118.159 108.72 122.256 112.437 123.175 116.874C123.602 119.005 123.284 121.22 122.277 123.143C122.029 123.619 121.738 124.071 121.409 124.494C121.331 124.597 121.252 124.696 121.171 124.792L121.122 124.977L120.28 128.12Z" fill="#E6E6E6"/>
<path d="M125.559 138.137C124.528 138.358 123.493 138.584 122.461 138.805C123.005 139.44 123.624 140.005 124.304 140.489C122.073 142.097 119.463 143.089 116.733 143.367C116.477 143.393 116.218 143.412 115.963 143.422C115.911 143.425 115.856 143.426 115.804 143.43L115.977 142.934L115.976 142.929L116.917 140.169C116.73 138.396 117.05 136.605 117.839 135.008L117.843 135.003C118.298 134.062 118.911 133.209 119.656 132.479C122.885 129.32 128.347 128.55 130.376 124.5C130.938 127.122 130.824 129.846 130.045 132.411C129.213 132.589 128.381 132.772 127.551 132.948C128.054 133.536 128.622 134.063 129.243 134.522C128.77 135.547 128.185 136.515 127.499 137.409C127.401 137.537 127.302 137.661 127.198 137.785C126.673 137.9 126.147 138.01 125.622 138.125C125.601 138.131 125.58 138.134 125.559 138.137Z" fill="#E6E6E6"/>
<path d="M139.879 87.438H54.4961C53.5036 87.4369 52.552 87.0394 51.8502 86.3327C51.1484 85.626 50.7536 84.6678 50.7524 83.6684V23.5565C50.7535 22.557 51.1483 21.5988 51.8501 20.8921C52.552 20.1854 53.5035 19.7879 54.4961 19.7867H139.879C140.871 19.7879 141.823 20.1854 142.525 20.8922C143.226 21.5989 143.621 22.557 143.622 23.5565V83.6684C143.621 84.6678 143.226 85.626 142.525 86.3327C141.823 87.0393 140.871 87.4369 139.879 87.438Z" fill="#F2F2F2"/>
<path d="M109.812 23.5453H84.5635C82.9628 23.5435 81.4281 22.9023 80.2963 21.7626C79.1644 20.6228 78.5277 19.0774 78.5259 17.4655V17.355H115.85V17.4655C115.848 19.0774 115.211 20.6228 114.079 21.7626C112.947 22.9023 111.413 23.5435 109.812 23.5453Z" fill="#E6E6E6"/>
<path d="M109.922 91.1965H84.6734C83.0727 91.1947 81.538 90.5536 80.4061 89.4138C79.2743 88.274 78.6376 86.7287 78.6357 85.1168V85.0062H115.959V85.1168C115.958 86.7287 115.321 88.274 114.189 89.4138C113.057 90.5536 111.522 91.1947 109.922 91.1965Z" fill="#E6E6E6"/>
<path d="M109.204 75.8248C109.204 79.4878 106.474 75.3826 102.837 75.3826C101.09 75.3826 99.4144 74.6839 98.1792 73.44C96.9439 72.1962 96.25 70.5092 96.25 68.7502C96.25 66.9911 96.9439 65.3041 98.1792 64.0603C99.4144 62.8165 101.09 62.1177 102.837 62.1177C106.474 62.1177 109.204 72.1618 109.204 75.8248Z" fill="#95D1B7"/>
<path d="M92.9254 41.5736C92.9254 43.3327 92.2315 45.0197 90.9962 46.2635C89.761 47.5073 88.0857 48.2061 86.3389 48.2061C82.7012 48.2061 80.8501 55.6275 80.8501 51.9645C80.8501 48.3015 82.7012 34.9412 86.3389 34.9412C88.0857 34.9412 89.761 35.6399 90.9962 36.8838C92.2315 38.1276 92.9254 39.8146 92.9254 41.5736Z" fill="#95D1B7"/>
<path d="M87.6029 35.9091C88.2605 35.3657 89.0658 35.5526 89.6904 36.1031C90.4009 36.7293 90.7941 37.8077 90.9673 38.9398C91.141 40.1563 91.1381 41.4101 90.9586 42.625C90.7892 43.7964 90.3553 45.0411 89.4749 45.3774C88.8881 45.6015 88.2325 45.3126 88.0186 44.455C87.9362 44.1107 87.9179 43.742 87.9654 43.3847C88.0129 43.0274 88.1246 42.6935 88.2897 42.4151C88.7836 41.6278 89.6446 41.5872 90.2911 41.9801C91.0516 42.4421 91.5152 43.485 91.7105 44.5888C91.9428 45.9011 91.7965 47.2622 91.5521 48.5485C91.2864 49.9466 90.9348 51.3134 90.6185 52.6895C90.0017 55.3731 89.4341 58.1075 89.2866 60.9357C89.0612 65.2561 90.0653 70.2412 92.8528 72.5586C94.3575 73.8096 96.1683 74.009 97.8528 73.515C99.6292 72.9941 101.216 71.6943 102.594 70.0541C103.309 69.1871 103.983 68.2526 104.61 67.2568C104.799 66.9344 105.051 66.6987 105.335 66.5799C105.618 66.461 105.92 66.4643 106.203 66.5893C107.652 67.2417 107.385 70.5283 105.951 70.9315C105.3 71.1146 104.593 70.6707 104.111 70.0712C103.583 69.3886 103.214 68.4955 103.052 67.5096C102.687 65.4372 103.113 63.1557 103.978 61.4435C104.956 59.5092 106.538 58.3047 108.104 57.5884C109.886 56.7728 111.753 56.5324 113.607 56.2664C115.504 55.9942 117.421 55.6767 119.213 54.6991C120.654 53.9058 121.993 52.7803 123.175 51.3681C125.558 48.5453 127.246 44.7226 127.994 40.4522C128.169 39.42 128.282 38.3689 128.333 37.3099C128.353 36.8953 127.897 36.897 127.877 37.3099C127.654 41.9263 126.144 46.3176 123.86 49.5957C122.721 51.238 121.387 52.5844 119.92 53.5737C118.152 54.7572 116.23 55.2223 114.3 55.5187C112.328 55.8215 110.332 56.0001 108.418 56.7782C106.725 57.4661 105.037 58.6327 103.883 60.5724C102.867 62.2827 102.309 64.6291 102.508 66.8642C102.692 68.9439 103.628 71.085 105.166 71.5371C105.888 71.7492 106.635 71.4793 107.116 70.6577C107.383 70.1902 107.554 69.627 107.609 69.0306C107.663 68.4343 107.601 67.8281 107.427 67.2793C107.205 66.6867 106.836 66.232 106.391 66.0039C105.946 65.7757 105.457 65.7903 105.019 66.0448C104.698 66.2534 104.416 66.5627 104.192 66.9492C102.878 68.9911 101.386 70.8969 99.5895 72.0414C97.9141 73.109 95.9408 73.5103 94.169 72.6936C90.8147 71.1475 89.5298 65.7148 89.7319 61.1497C89.8643 58.1621 90.4978 55.2765 91.1529 52.4494C91.4874 51.0059 91.8683 49.5661 92.1032 48.0815C92.3135 46.7522 92.3778 45.3439 92.0714 44.033C91.804 42.8888 91.2653 41.87 90.4676 41.3905C89.7431 40.9549 88.8551 40.9651 88.2074 41.652C87.2709 42.6451 87.1851 45.1075 88.3417 45.8718C89.1092 46.379 90.0338 45.9842 90.5999 45.142C91.2345 44.1977 91.4411 42.8669 91.5125 41.6074C91.6475 39.2276 91.277 36.357 89.5683 35.2831C88.8644 34.8407 88.0517 34.7909 87.3729 35.3518C87.3229 35.3965 87.2871 35.4669 87.2731 35.5483C87.2591 35.6296 87.2679 35.7155 87.2978 35.7878C87.3276 35.8601 87.3761 35.9132 87.433 35.9358C87.4899 35.9584 87.5508 35.9489 87.6029 35.9091Z" fill="#3F3D56"/>
<path d="M128.803 38.4684C128.803 42.3528 134.858 52.2573 132.821 55.2309C132.568 55.6023 132.301 55.9634 132.02 56.3142C131.108 57.4616 130.063 58.4942 128.906 59.3894C128.711 59.5442 128.513 59.6923 128.314 59.836C127.604 60.343 126.859 60.7988 126.085 61.2001C125.945 61.2708 125.802 61.3416 125.659 61.4123C121.747 63.3057 117.295 63.7401 113.094 62.638C108.894 61.536 105.218 58.9691 102.721 55.3941C100.224 51.8191 99.0676 47.4679 99.4574 43.1147C99.8472 38.7616 101.758 34.6889 104.85 31.6215C105.013 31.4579 105.179 31.2987 105.351 31.1417C107.049 29.5744 109.027 28.3449 111.18 27.5182C111.182 27.5182 111.182 27.5159 111.184 27.5159C114.413 26.2815 117.921 25.9865 121.308 26.6648H121.312C121.387 26.6803 121.461 26.6957 121.536 26.7134C129.828 28.4799 128.803 29.5919 128.803 38.4684Z" fill="#95D1B7"/>
<path d="M126.087 61.1161C126.09 61.1441 126.089 61.1723 126.085 61.2001C125.944 61.2709 125.802 61.3416 125.659 61.4124C125.595 61.3923 125.539 61.3533 125.498 61.3004C125.457 61.2475 125.432 61.1832 125.428 61.1161C125.401 60.7821 125.337 60.4521 125.237 60.1323C124.381 57.3555 121.378 55.9362 118.756 55.4343C115.549 54.8175 112.174 55.0739 109.122 53.7408C107.871 53.2281 106.762 52.4161 105.893 51.3752C104.982 50.2287 104.525 48.7839 104.608 47.3183C104.788 43.8717 107.201 41.1745 108.027 37.9223C108.367 36.5826 108.367 35.1853 107.761 33.9207C107.247 32.8463 106.325 31.9023 105.096 31.7696C105.046 31.7659 104.998 31.7506 104.955 31.7249C104.913 31.6992 104.876 31.6638 104.85 31.6215C105.012 31.4579 105.179 31.2987 105.35 31.1417C105.573 31.1752 105.792 31.2323 106.002 31.312C107.206 31.7762 108.042 32.8264 108.512 34.0047C109.054 35.3688 109.004 36.8368 108.626 38.2363C107.746 41.4994 105.159 44.3315 105.26 47.8489C105.348 50.8977 107.992 52.799 110.657 53.6037C113.955 54.5986 117.527 54.1277 120.789 55.2795C123.356 56.186 125.848 58.2133 126.087 61.1161Z" fill="#3F3D56"/>
<path d="M128.906 59.3895C128.711 59.5443 128.513 59.6924 128.314 59.8361C128.287 59.8073 128.267 59.773 128.254 59.7357C128.242 59.6983 128.237 59.6587 128.241 59.6194C128.351 56.7595 127.372 53.9654 125.503 51.8086C124.695 50.8614 123.733 50.0586 122.658 49.4342C121.534 48.7864 120.3 48.4393 119.077 48.0369C117.874 47.6412 116.651 47.1614 115.731 46.2572C114.794 45.3353 114.333 44.0862 114.192 42.795C113.861 39.7353 115.382 36.9231 115.505 33.9097C115.56 32.5655 115.266 31.2589 114.438 30.1779C113.722 29.2449 112.666 28.6082 111.47 28.7497C111.075 28.7983 111.055 28.2146 111.397 28.1019C111.421 28.0942 111.445 28.089 111.47 28.0864C112.862 27.9228 114.124 28.6922 114.952 29.7711C115.916 31.0246 116.249 32.5523 116.153 34.1153C115.964 37.1397 114.383 40.047 114.897 43.12C114.985 43.7665 115.207 44.387 115.549 44.9416C115.89 45.4961 116.344 45.9722 116.879 46.339C117.982 47.0708 119.284 47.4002 120.526 47.807C121.766 48.1882 122.938 48.7658 123.997 49.5182C125.034 50.2824 125.943 51.2086 126.689 52.2618C128.178 54.3318 128.956 56.834 128.906 59.3895Z" fill="#3F3D56"/>
<path d="M132.821 55.2309C132.568 55.6024 132.301 55.9635 132.019 56.3143C132.313 54.5966 132.248 52.8362 131.828 51.1453C131.316 49.0166 130.278 47.0525 128.812 45.4348C128.077 44.6296 127.231 43.9349 126.3 43.3721C125.235 42.7309 124.071 42.1893 123.318 41.1546C121.685 38.9084 122.787 35.9769 123.314 33.5626C123.591 32.3025 123.74 30.9605 123.228 29.7401C122.831 28.7939 122.045 27.9074 120.978 27.799C120.559 27.757 120.556 27.0916 120.978 27.1358C121.057 27.1446 121.136 27.1557 121.215 27.1689C122.381 27.3812 123.279 28.2567 123.766 29.3355C124.399 30.7438 124.273 32.2649 123.951 33.7395C123.419 36.1648 122.188 39.3771 124.39 41.358C125.318 42.1937 126.524 42.6558 127.525 43.3964C128.422 44.0567 129.226 44.8369 129.914 45.7156C132.021 48.4143 133.058 51.8058 132.821 55.2309Z" fill="#3F3D56"/>
<path d="M25.4944 144.916C22.9838 142.418 20.8452 139.568 19.1453 136.453C17.4505 133.355 16.1988 130.031 15.4271 126.58C14.6447 123.078 14.3855 119.478 14.6582 115.899C15.2237 108.609 17.8986 101.646 22.3522 95.8713C22.6242 95.52 22.9026 95.1741 23.1876 94.8334C23.5053 94.4526 24.0452 95.0011 23.7297 95.3793C19.185 100.867 16.3377 107.576 15.5402 114.676C14.9634 120.101 15.6075 125.588 17.4246 130.728C19.2416 135.869 22.1851 140.531 26.0365 144.37C26.3883 144.719 25.8462 145.265 25.4944 144.916Z" fill="#E6E6E6"/>
<path d="M27.9618 89.7175C27.8364 90.4249 27.6099 91.1102 27.2894 91.7522C26.4044 93.5418 24.9948 95.0144 23.2513 95.9707C23.1548 96.0226 23.0551 96.0777 22.9553 96.1263C22.8363 95.9383 22.714 95.7504 22.5982 95.5625C21.8163 94.3021 21.1213 92.977 20.8028 91.5319C20.4296 89.8439 20.6323 87.9485 21.7069 86.5974C22.7784 85.2463 24.8247 84.6404 26.308 85.5153C26.7363 85.7728 27.0997 86.1265 27.3698 86.5488C27.2218 86.7335 27.0738 86.9149 26.9258 87.0996C26.9128 87.1166 26.8988 87.1328 26.884 87.1482C26.7553 87.3102 26.6234 87.469 26.4946 87.631C25.9573 88.2952 25.4232 88.9626 24.8859 89.6236C25.6432 89.7638 26.4139 89.8171 27.1832 89.7823C27.2443 89.7791 27.3087 89.7759 27.3698 89.7726C27.5661 89.7596 27.7656 89.7434 27.9618 89.7175Z" fill="#E6E6E6"/>
<path d="M17.1096 103.005L16.9037 105.707L16.849 106.439C16.7911 106.41 16.7299 106.381 16.672 106.352C14.6707 105.351 12.9044 103.932 11.4911 102.19C10.0779 100.447 9.05027 98.4208 8.4769 96.2462C8.28521 95.4918 8.15076 94.7239 8.07471 93.949C9.11719 93.787 10.1629 93.6218 11.2054 93.4598C10.3614 92.3542 9.30416 91.4317 8.09723 90.7479C8.37245 88.0438 9.34279 85.4587 10.9126 83.2473C11.1829 87.7768 15.8934 90.6572 17.618 94.8465C18.1471 96.1575 18.3761 97.5717 18.2881 98.9841C18.2001 100.396 17.7973 101.771 17.1096 103.005Z" fill="#E6E6E6"/>
<path d="M16.2147 126.738C15.9637 126.751 15.7128 126.757 15.465 126.754C13.3238 126.74 11.2079 126.286 9.24712 125.42C7.2863 124.554 5.52187 123.293 4.06201 121.716C2.88027 120.413 1.93008 118.914 1.25308 117.287C1.27561 117.283 1.29491 117.28 1.31744 117.277C2.35992 117.115 3.40563 116.95 4.44811 116.788C3.34092 115.335 1.86937 114.205 0.184849 113.515C-0.042967 112.051 -0.0603011 110.562 0.133379 109.093C2.48863 112.958 7.99387 113.269 11.472 116.146C13.1308 117.538 14.2616 119.464 14.6735 121.599C14.7762 122.127 14.8311 122.662 14.8376 123.2C14.8408 123.329 14.8408 123.456 14.8376 123.582L14.9148 123.757L16.2147 126.738Z" fill="#E6E6E6"/>
<path d="M26.5624 131.212C25.8964 132.035 25.2304 132.865 24.5643 133.688C25.3832 133.839 26.2174 133.889 27.0483 133.837C26.3104 136.498 24.8939 138.918 22.9395 140.858C22.7561 141.039 22.5662 141.217 22.3732 141.386C22.3346 141.421 22.2927 141.457 22.2541 141.493L22.0804 140.997L22.0771 140.994L21.0926 138.25C19.8434 136.985 18.9784 135.388 18.599 133.645V133.639C18.3682 132.619 18.3149 131.567 18.4413 130.529C18.9915 126.028 22.7689 121.981 21.8294 117.546C23.8995 119.234 25.5057 121.428 26.4948 123.919C25.9575 124.583 25.4234 125.251 24.8861 125.912C25.6434 126.052 26.4141 126.105 27.1834 126.07C27.4529 127.167 27.5996 128.291 27.621 129.421C27.6242 129.583 27.6242 129.741 27.621 129.903C27.2832 130.324 26.9421 130.742 26.6043 131.164C26.5912 131.181 26.5773 131.197 26.5624 131.212Z" fill="#E6E6E6"/>
<path d="M83.6553 67.6464C86.625 64.7289 87.6621 59.9207 85.9716 56.907C84.2811 53.8933 80.5032 53.8153 77.5335 56.7329C74.5637 59.6504 70.39 67.5401 72.0804 70.5538C73.7709 73.5675 80.6855 70.5639 83.6553 67.6464ZM73.4066 69.2283C72.7741 68.9222 72.6018 67.9604 73.022 67.0799C73.4421 66.1995 74.2955 65.7339 74.9281 66.04C75.5606 66.346 75.7328 67.3079 75.3127 68.1883C74.8926 69.0688 74.0392 69.5344 73.4066 69.2283Z" fill="#3F3D56"/>
<path d="M79.9855 65.4264C79.6995 65.1633 79.4136 64.9002 79.1277 64.6371C78.7351 64.3206 78.4136 63.9239 78.1843 63.4732C77.9364 62.8442 77.874 62.1566 78.0045 61.4928C78.1605 60.5302 78.6067 59.6393 79.2827 58.9408L79.2369 59.611C79.5804 59.2066 79.9845 58.8588 80.4346 58.58C80.8581 58.3597 81.324 58.3753 81.5081 58.7669C81.7189 59.2152 81.5183 60.0195 81.8039 60.3793C82.2979 61.0015 83.5855 59.6577 84.1285 60.2104C84.4449 60.5325 84.2951 61.2966 84.1293 61.9398C83.9583 62.7345 83.6882 63.5041 83.3252 64.2304C82.6642 65.429 81.4569 66.2212 80.6403 65.8979C80.3954 65.7821 80.1735 65.6223 79.9855 65.4264Z" fill="#95D1B7"/>
<path d="M77.4529 65.5875C77.3025 65.0739 77.6114 64.406 77.9045 63.8434L78.0525 63.689C78.3572 63.5346 78.6877 63.4387 79.0273 63.4063C79.1851 63.3944 79.3422 63.4368 79.4729 63.5267C79.6036 63.6165 79.7001 63.7483 79.7466 63.9006C79.8332 64.2021 79.7634 64.6328 79.9707 64.8089C80.3717 65.1496 81.1763 64.0945 81.5589 64.4622C81.7736 64.6685 81.6184 65.2005 81.3422 65.4618C81.081 65.6807 80.7588 65.8126 80.4199 65.8392C79.9289 65.9214 79.4378 66.0036 78.9468 66.0858C78.6595 66.1523 78.3629 66.1674 78.0705 66.1302C77.9274 66.1071 77.7936 66.044 77.6844 65.948C77.5752 65.8521 77.495 65.7271 77.4529 65.5875Z" fill="#2F2E41"/>
<path d="M75.8331 65.9697C75.9367 65.2102 76.5135 63.988 77.0281 62.9434L77.2286 62.6252C77.5157 62.2801 77.8465 61.9743 78.2123 61.7155C78.4922 61.5613 78.6864 61.6751 78.6161 62.1796C78.5538 62.6262 78.2952 63.3542 78.3962 63.5424C78.5914 63.9061 79.78 61.8283 79.9468 62.2443C80.0403 62.4777 79.6605 63.4089 79.2987 63.9594C79.0385 64.3638 78.7058 64.7158 78.3176 64.9975C77.8496 65.3584 77.3816 65.7193 76.9137 66.0803C76.6844 66.2901 76.4167 66.4528 76.1255 66.5593C75.909 66.5983 75.7702 66.4306 75.8331 65.9697Z" fill="#FF6584"/>
<path d="M75.9949 68.7302C75.9255 68.3895 75.7827 68.0683 75.5766 67.7891C75.3706 67.51 75.1062 67.2798 74.8022 67.1147C74.4983 66.9496 74.162 66.8536 73.8172 66.8335C73.4724 66.8133 73.1274 66.8696 72.8065 66.9983L67.3149 60.6033L66.1309 64.8318L71.5273 70.2563C71.7778 70.7848 72.212 71.2024 72.7478 71.4301C73.2835 71.6577 73.8836 71.6796 74.4343 71.4915C74.985 71.3033 75.448 70.9183 75.7357 70.4094C76.0233 69.9005 76.1156 69.303 75.9949 68.7302Z" fill="#FFB8B8"/>
<path d="M57.7648 44.3743L56.3085 46.8586C56.3085 46.8586 60.1503 48.7751 60.225 50.2881C60.2996 51.8011 60.5746 51.4174 61.1461 51.8328C61.7177 52.2481 62.3953 53.324 62.4169 54.5068C62.4386 55.6895 71.5251 64.8534 71.5251 64.8534L69.0504 68.3067C68.2447 67.5515 67.3487 66.9004 66.3831 66.3684C64.912 65.5912 60.8293 64.1489 60.5327 63.3498C60.2361 62.5508 59.0412 61.9697 57.8981 61.139C56.755 60.3083 59.2048 59.6032 57.2996 58.2187C55.3944 56.8343 45.057 45.9349 43.2048 44.8807C41.3526 43.8266 41.3408 40.6087 41.3408 40.6087L42.7157 38.6902L57.7648 44.3743Z" fill="#3F3D56"/>
<path d="M56.0215 152.317H59.9176L61.7715 137.185H56.0215V152.317Z" fill="#FFB6B6"/>
<path d="M53.9648 159.115H56.7588L57.2575 156.458L58.5348 159.115H65.9452C66.3004 159.115 66.6464 159 66.9325 158.788C67.2186 158.576 67.4299 158.278 67.5357 157.936C67.6414 157.595 67.6359 157.228 67.5201 156.89C67.4042 156.552 67.1841 156.26 66.8918 156.057L60.9741 151.941V149.256L54.7497 149.63L53.9648 159.115Z" fill="#2F2E41"/>
<path d="M25.8149 144.533L29.1662 146.534L38.4262 134.471L33.4806 131.517L25.8149 144.533Z" fill="#FFB6B6"/>
<path d="M20.6035 149.323L23.0067 150.759L24.7812 148.73L24.5342 151.671L30.9081 155.477C31.2136 155.66 31.569 155.739 31.9225 155.704C32.276 155.668 32.609 155.52 32.8729 155.281C33.1368 155.041 33.3177 154.723 33.3894 154.373C33.4611 154.023 33.4196 153.658 33.2712 153.333L30.266 146.754L31.6263 144.444L26.0831 141.569L20.6035 149.323Z" fill="#2F2E41"/>
<path d="M56.443 55.5612L59.6538 67.715L41.6675 67.9533L44.034 56.2759L56.443 55.5612Z" fill="#FFB6B6"/>
<path d="M59.7232 67.5613L63.5431 80.1072L65.2346 113.658L60.8508 145.692H55.9992L54.0115 114.18L49.1224 92.6187L51.9848 115.17L36.9919 137.243H29.6245L43.1693 112.919L35.2849 87.6689C35.2849 87.6689 36.0756 75.182 41.0759 68.5491L42.293 65.0082L59.7232 67.5613Z" fill="#2F2E41"/>
<path d="M59.9718 44.3674C59.9615 44.2582 59.946 44.1438 59.9254 44.0346C59.5366 41.4121 58.1319 39.0516 56.0188 37.4696C53.9057 35.8876 51.2563 35.2131 48.6505 35.5935C46.2032 35.9628 43.9738 37.2184 42.3803 39.1249V39.1301C42.2977 39.2289 42.2202 39.3329 42.1428 39.437C42.0033 39.6138 41.8742 39.801 41.7503 39.9882C40.6307 41.6915 40.0541 43.6983 40.0975 45.7404C40.0975 45.7404 41.0375 50.7801 41.2338 52.1167C41.3681 52.9801 41.4714 53.8278 41.5488 54.6547C41.5953 55.0708 41.6315 55.4817 41.6625 55.8821V55.8873C41.8174 57.8689 41.869 59.6476 41.9155 61.0258C41.9362 61.7748 42.4527 63.9019 42.4837 63.9279C42.5155 63.9522 42.5501 63.9756 42.5866 63.9981C42.8485 64.1517 43.144 64.2379 43.4469 64.2491C43.7497 64.2603 44.0507 64.1962 44.3231 64.0625L46.6465 62.971C48.1892 62.2482 49.904 61.9814 51.5914 62.2018C54.3528 62.5622 58.3747 63.0572 58.5572 62.9076C58.7741 62.7203 59.8221 53.2765 60.0958 50.3068C60.1319 49.8803 60.163 49.4383 60.1784 48.965V48.9598C60.2238 47.4259 60.1547 45.8908 59.9718 44.3674Z" fill="#3F3D56"/>
<path d="M73.3321 46.0655C73.2279 46.3779 73.0568 46.6634 72.8311 46.902C72.6054 47.1406 72.3304 47.3264 72.0256 47.4465C71.7209 47.5665 71.3937 47.6178 71.0671 47.5967C70.7405 47.5756 70.4225 47.4826 70.1354 47.3244L64.2391 52.7016L63.6094 48.5875L69.3051 44.112C69.6011 43.644 70.0572 43.3016 70.5872 43.1496C71.1171 42.9977 71.6839 43.0468 72.1803 43.2876C72.6767 43.5284 73.0681 43.9442 73.2804 44.4561C73.4927 44.9681 73.5111 45.5408 73.3321 46.0655Z" fill="#FFB8B8"/>
<path d="M51.3865 35.6378C51.3865 35.6378 57.1893 36.729 53.8868 48.0719L55.1619 53.6941L61.1449 50.2287L61.5073 48.7638L66.7456 45.0612L69.2223 49.5573L66.2107 52.4551L65.3409 54.264L63.796 54.7785L59.0104 59.3833L57.0037 60.6181C57.0037 60.6181 54.4522 62.2102 52.1826 61.3476C51.5766 61.1192 51.0101 60.7964 50.5036 60.3909C49.513 59.5955 48.6339 58.3797 48.0835 56.5416C46.0415 49.7223 45.2749 44.9538 45.2749 44.9538L51.3865 35.6378Z" fill="#3F3D56"/>
<path d="M72.9481 51.5913L69.4351 38.2835C69.4159 38.211 69.4251 38.1338 69.4608 38.0679C69.4965 38.002 69.556 37.9523 69.6269 37.9293C69.6978 37.9062 69.7749 37.9114 69.8421 37.9438C69.9094 37.9762 69.9617 38.0333 69.9884 38.1034L74.7166 50.541L72.9481 51.5913Z" fill="#3F3D56"/>
<path d="M75.8728 54.6082C75.3607 54.5007 74.863 54.3326 74.39 54.1075C74.1499 53.9921 73.9177 53.8618 73.6906 53.7274C73.6097 53.682 73.5293 53.6336 73.4501 53.5868C73.2611 53.4756 73.072 53.3644 72.8816 53.2515C72.7203 53.1576 72.5576 53.062 72.398 52.9668C72.162 52.8282 71.9082 52.6672 71.8398 52.3998C71.8189 52.2733 71.8262 52.1437 71.8611 52.0203C71.896 51.897 71.9577 51.783 72.0417 51.6865C72.2145 51.4832 72.4143 51.3047 72.6355 51.1563C73.1313 50.7895 73.6276 50.4233 74.1243 50.0576L74.2572 49.7644C74.6606 49.936 75.0312 50.1773 75.3521 50.4774C75.4789 50.6071 75.5784 50.7614 75.6445 50.9309C75.7106 51.1003 75.7419 51.2815 75.7366 51.4635C75.732 51.544 75.7189 51.6237 75.6975 51.7013C75.6015 52.0413 75.3503 52.3305 75.2012 52.6565C75.171 52.7247 75.1448 52.7948 75.123 52.8663C75.0563 53.0762 75.0365 53.2985 75.0649 53.5171C75.0933 53.7357 75.1692 53.9453 75.2873 54.1309C75.4345 54.3418 75.6373 54.5071 75.8728 54.6082Z" fill="#CCCCCC"/>
<path d="M76.6076 54.7311C76.3565 54.7497 76.1047 54.7076 75.873 54.6082C76.1157 54.6615 76.3609 54.7025 76.6076 54.7311Z" fill="#E6E6E6"/>
<path d="M75.873 54.6083C75.3609 54.5008 74.8632 54.3327 74.3903 54.1076C74.1502 53.9922 73.9179 53.8619 73.6908 53.7275C73.61 53.6821 73.5295 53.6337 73.4504 53.5869C73.2613 53.4757 73.0723 53.3645 72.8818 53.2516C72.9484 53.1616 73.0197 53.0752 73.0952 52.9927C73.7989 52.2217 74.7601 51.7867 75.7369 51.4636C75.7322 51.5441 75.7191 51.6238 75.6977 51.7015C75.6018 52.0414 75.3506 52.3306 75.2015 52.6566C75.1712 52.7248 75.1451 52.7949 75.1233 52.8664C75.0566 53.0764 75.0367 53.2986 75.0651 53.5172C75.0935 53.7358 75.1695 53.9454 75.2876 54.1311C75.4348 54.3419 75.6375 54.5072 75.873 54.6083Z" fill="#95D1B7"/>
<path d="M55.4478 29.9643C57.4624 26.2532 56.108 21.6002 52.4226 19.5716C48.7372 17.5429 44.1165 18.9068 42.1019 22.6179C40.0873 26.329 41.4417 30.982 45.1271 33.0106C48.8125 35.0393 53.4332 33.6754 55.4478 29.9643Z" fill="#FFB6B6"/>
<path d="M44.1369 20.0427V20.0481C44.1377 20.3813 44.0955 20.7132 44.0114 21.0354C43.998 21.0919 43.982 21.1511 43.9633 21.2076V21.2103C43.7841 21.7857 43.4749 22.3115 43.0601 22.7465C42.6453 23.1815 42.136 23.5138 41.5723 23.7175C41.4895 23.7497 41.404 23.7766 41.3185 23.8008C41.1384 23.8534 40.9544 23.8912 40.7682 23.9138C40.601 23.9377 40.4322 23.9494 40.2633 23.9488C40.1313 23.9494 39.9993 23.9431 39.8679 23.93C39.5605 23.8986 39.2581 23.829 38.9676 23.7228C38.9221 23.7095 38.8775 23.6933 38.8341 23.6744C38.8122 23.6666 38.7908 23.6576 38.7699 23.6475C38.2853 23.4432 37.8469 23.1419 37.4815 22.7618C37.116 22.3817 36.8311 21.9308 36.6439 21.4365C36.4568 20.9421 36.3714 20.4146 36.3929 19.886C36.4144 19.3574 36.5424 18.8387 36.769 18.3614L36.7717 18.3587C36.9616 17.9583 37.2192 17.5942 37.533 17.2827C38.233 16.5806 38.5414 14.821 39.6046 14.821C39.6555 14.8201 39.7063 14.8219 39.7569 14.8263C40.4702 14.8505 41.7887 16.4003 42.3497 16.7662C42.7664 17.0312 43.1276 17.3758 43.413 17.7804C43.711 18.1966 43.9235 18.6685 44.0381 19.1684C44.1036 19.4552 44.1368 19.7485 44.1369 20.0427Z" fill="#2F2E41"/>
<path d="M39.4037 18.6845C38.8021 19.3897 37.8602 19.6639 37.0105 20.0309C35.511 20.6933 34.1945 21.7141 33.1753 23.0047C32.1561 24.2953 31.465 25.8167 31.1617 27.4371C30.9268 28.757 30.9575 30.1233 30.5865 31.41C30.2176 32.6967 29.3043 33.9591 27.9936 34.1824C27.1066 34.3349 26.2174 33.99 25.3831 33.6495C24.9243 33.4638 24.4654 33.2774 24.0065 33.0902C24.4852 31.8809 24.9631 30.6716 25.4402 29.4622C24.6733 30.6035 23.7815 31.6544 22.7814 32.595C21.137 31.9273 19.4911 31.2596 17.8438 30.592C21.8967 30.6074 21.2051 26.6456 22.1118 22.6706C22.6102 20.4863 26.8541 19.0072 27.6862 16.9291C28.1358 15.8019 28.8967 14.828 29.8789 14.1227C30.861 13.4173 32.0232 13.0101 33.228 12.9492C34.4328 12.8882 35.6297 13.1761 36.6771 13.7788C37.7245 14.3815 38.5785 15.2737 39.138 16.3498C39.9701 16.6837 39.9942 17.9881 39.4037 18.6845Z" fill="#2F2E41"/>
<path d="M55.6581 18.6301C54.9161 17.6461 53.0468 17.6078 52.6718 18.7842L51.8836 17.7077C50.8608 15.4575 48.1624 15.9153 45.7226 16.2121C43.2828 16.509 41.1328 18.2403 40.0413 20.4575C38.9498 22.6747 38.8508 25.308 39.4795 27.7004C39.9024 29.31 40.679 30.8806 41.9676 31.924C43.2561 32.9675 49.3134 35.4353 49.8176 33.3104C49.1873 36.0826 50.4554 35.6487 52.3326 37.7736C53.3049 34.8325 53.7607 29.291 54.7329 26.35C54.8793 25.9073 55.0256 25.4645 55.172 25.0218C55.4805 24.0886 55.7894 23.1539 56.0124 22.1963C56.2924 20.9934 56.4002 19.614 55.6581 18.6301Z" fill="#2F2E41"/>
<path d="M50.6595 27.073L50.3345 24.9891C50.5554 22.3973 50.1948 18.2747 51.8839 17.7079L52.9169 18.7481C52.2635 18.9675 51.0207 22.8433 50.6595 27.073Z" fill="#FF6584"/>
<path d="M53.0684 16.0381C53.0684 17.6254 52.5278 18.9122 51.8609 18.9122C51.1939 18.9122 50.6533 17.6254 50.6533 16.0381C50.6533 14.4508 51.8609 13.1641 51.8609 13.1641C51.8609 13.1641 53.0684 14.4508 53.0684 16.0381Z" fill="#FF6584"/>
<path d="M54.0646 16.7478C53.4312 18.2013 52.4227 19.1609 51.812 18.8911C51.2013 18.6212 51.2197 17.2242 51.8531 15.7706C52.4865 14.3171 54.1057 13.6274 54.1057 13.6274C54.1057 13.6274 54.698 15.2943 54.0646 16.7478Z" fill="#FF6584"/>
</g>
<defs>
<clipPath id="clip0_104_1525">
<rect width="154" height="154" fill="white"/>
</clipPath>
</defs>
</svg>
