<svg width="154" height="154" viewBox="0 0 154 154" fill="none" xmlns="http://www.w3.org/2000/svg">
<g clip-path="url(#clip0_104_1504)">
<path d="M88.2005 34.2008L89.114 39.7936L79.2944 41.4957L81.578 33.7145L88.2005 34.2008Z" fill="#A0616A"/>
<path d="M113.244 37.8993C115.222 38.8428 115.697 42.2933 114.302 45.6027C113.763 46.9328 112.929 48.1073 111.877 49.0264L109.883 54.6921C108.574 61.4472 105.599 68.5597 101.498 68.0077C95.6949 67.2272 93.8657 59.7183 93.8657 59.7183L101.676 56.4648L105.163 49.3085L106.35 46.3881C106.293 44.9389 106.563 43.4969 107.138 42.1838C108.531 38.872 111.265 36.9558 113.244 37.8993Z" fill="#A0616A"/>
<path d="M46.7709 146.586L41.3564 142.323L41.3998 142.231L71.5686 78.2232L71.6257 78.2134L95.9188 73.8219L100.979 85.822L114.21 105.632C115.122 106.997 115.599 108.604 115.588 110.279L115.373 145.567L107.163 145.818L107.152 145.706L104.288 117.175C104.08 115.096 103.066 113.173 101.509 111.899L85.3593 98.6878L46.7686 146.588L46.7709 146.586Z" fill="#2F2E41"/>
<path d="M42.1853 142.773C42.1853 142.773 39.445 143.26 38.5315 144.962C37.6181 146.664 34.8777 150.311 34.8777 150.311C34.8777 150.311 32.8225 154.445 37.6181 153.959C42.4137 153.472 44.2406 151.284 44.2406 151.284L46.2958 145.205L42.1853 142.773Z" fill="#2F2E41"/>
<path d="M111.379 142.773C111.379 142.773 114.119 143.26 115.033 144.962C115.946 146.664 118.687 150.311 118.687 150.311C118.687 150.311 120.742 154.445 115.946 153.959C111.151 153.472 109.324 151.284 109.324 151.284L107.269 145.205L111.379 142.773Z" fill="#2F2E41"/>
<path d="M74.7269 41.2525L90.9406 37.8483L100.075 41.0094L97.563 77.2407L71.644 78.3349L74.7269 41.2525Z" fill="#95D1B7"/>
<path d="M98.4489 40.1997L101.979 45.88L102.799 59.8838L92.3105 60.7324L92.5937 42.5876L98.4489 40.1997Z" fill="#95D1B7"/>
<path d="M108.154 53.829L103.911 52.0344L98.5151 62.6777L103.443 65.2941L108.154 53.829Z" fill="#A0616A"/>
<path d="M111.114 44.7712C110.819 44.7712 110.524 44.7177 110.241 44.6107C109.561 44.3529 109.01 43.7985 108.727 43.0909L105.507 35.0374C104.295 32.0027 102.902 29.0142 101.367 26.1522L100.696 24.8975C100.232 24.1388 89.2777 6.1885 88.757 4.78545C88.3642 3.72769 89.538 1.56111 89.5883 1.46871L89.602 1.44925C89.6271 1.41764 92.2555 -1.63162 95.4183 1.20123C98.524 3.98058 103.749 22.4026 103.97 23.1856L104.112 23.5649C105.4 27.0324 107.03 30.3711 108.956 33.486L113.283 40.4891C113.685 41.1408 113.811 41.9481 113.628 42.7019C113.445 43.4557 112.968 44.0952 112.317 44.4575C111.943 44.6666 111.529 44.7712 111.114 44.7712Z" fill="#3F3D56"/>
<path d="M82.2398 47.3341L87.3392 47.638L97.1336 36.6349L100.961 31.7911C101.297 30.3856 101.943 29.0871 102.845 28.0026C105.071 25.2549 108.205 24.2506 109.846 25.7582C111.488 27.2658 111.016 30.7139 108.789 33.4616C107.914 34.5729 106.8 35.4434 105.544 36.0027L104.601 37.3279L93.7904 53.508C91.8401 56.4284 88.3919 57.7488 85.14 56.8199L78.5244 54.9305L82.2398 47.3317V47.3341Z" fill="#A0616A"/>
<path d="M79.3785 58.1768L71.5115 52.7956C69.0109 51.0862 68.0495 47.7354 69.2256 44.8296C69.9404 43.0642 71.3425 41.7414 73.0735 41.2016C74.8022 40.6594 76.6565 40.9633 78.1545 42.0381L85.88 47.5749L79.3785 58.1768Z" fill="#95D1B7"/>
<path d="M83.1808 36.258C87.6328 36.258 91.2419 32.415 91.2419 27.6744C91.2419 22.9337 87.6328 19.0907 83.1808 19.0907C78.7287 19.0907 75.1196 22.9337 75.1196 27.6744C75.1196 32.415 78.7287 36.258 83.1808 36.258Z" fill="#A0616A"/>
<path d="M88.4832 35.0835L87.7867 33.8482C87.7867 33.8482 90.8353 31.6598 88.3165 30.3905C85.7976 29.1212 85.4003 26.016 85.4003 26.016C85.4003 26.016 78.0425 23.7594 78.4398 22.0646C78.8372 20.3697 77.7114 19.1709 79.5657 18.4657C81.4222 17.7606 89.7049 18.4657 90.6343 20.5107C91.5615 22.5582 92.4909 28.202 92.0273 28.9801C91.5638 29.7582 88.4832 35.0859 88.4832 35.0859V35.0835Z" fill="#2F2E41"/>
<path d="M86.3937 25.3789L78.9035 20.0876C78.9035 20.0876 69.2278 16.9144 72.8724 22.9813L75.9553 23.6524C75.9553 23.6524 84.3385 25.7339 86.3937 25.3789Z" fill="#95D1B7"/>
<path d="M84.1399 24.1801L91.9612 30.461C91.9612 30.461 96.533 21.7801 89.3739 17.4761C82.2148 13.1721 77.6772 19.9126 77.6772 19.9126L79.5658 22.0646L84.1399 24.1801Z" fill="#95D1B7"/>
<path d="M27.9424 10.0061C27.9424 12.6274 29.9383 14.7551 32.4023 14.7551C33.608 14.7551 34.7019 14.2444 35.5034 13.4153C36.3415 12.552 36.8599 11.3435 36.8599 10.0061C36.8599 7.38482 34.864 5.25714 32.4023 5.25714C31.6304 5.25714 30.9065 5.46626 30.2739 5.83101C30.1666 5.89423 30.0616 5.96231 29.9588 6.03526C28.9951 6.70639 28.2941 7.76415 28.0451 9.00185C28.0132 9.14289 27.9903 9.28635 27.9766 9.43225C27.9538 9.61949 27.9424 9.81158 27.9424 10.0061Z" fill="#95D1B7"/>
<path d="M27.9766 9.4323C28.0474 9.51497 28.1204 9.60494 28.2004 9.70707C28.4698 10.0524 28.5772 10.2396 28.7279 10.4998C28.858 10.7259 29.0225 11.008 29.3444 11.4846C30.009 12.467 30.3424 12.9606 30.8608 13.408C31.3723 13.8481 32.0094 14.3977 32.9663 14.4682C33.0325 14.4731 33.0987 14.4731 33.1626 14.4731C34.3204 14.4731 35.1654 13.7314 35.4874 13.3983C36.33 12.5229 36.5059 11.4603 36.5424 11.0445C36.5721 10.7089 36.6132 9.532 35.8893 8.47424C35.2499 7.54049 34.3661 7.20736 33.5098 6.88152C32.9503 6.66997 32.5255 6.59459 32.1487 6.5265C31.6326 6.4341 31.1896 6.35386 30.5114 5.97452C30.4177 5.92103 30.3401 5.87482 30.2739 5.83105C30.1665 5.89428 30.0615 5.96236 29.9587 6.03531C29.9747 6.04504 29.993 6.0572 30.0113 6.06935C30.1003 6.12528 30.2099 6.19337 30.3607 6.27847C31.0846 6.68456 31.5755 6.77453 32.0939 6.86693C32.4753 6.93501 32.8703 7.00553 33.4024 7.20736C34.2474 7.52833 35.0466 7.82985 35.6267 8.67849C36.2843 9.63899 36.2455 10.7065 36.2204 11.0104C36.1861 11.3898 36.0263 12.3551 35.2613 13.1503C34.953 13.4688 34.1172 14.2056 32.9891 14.1229C32.1327 14.0597 31.5413 13.549 31.064 13.1405C30.5799 12.7223 30.2556 12.2408 29.6093 11.2852C29.2919 10.8159 29.1321 10.5387 29.0042 10.3174C28.8535 10.0572 28.7347 9.85054 28.4516 9.48823C28.2986 9.29126 28.1638 9.13321 28.0451 9.0019C28.0131 9.14294 27.9903 9.2864 27.9766 9.4323Z" fill="#E6E6E6"/>
</g>
<defs>
<clipPath id="clip0_104_1504">
<rect width="154" height="154" fill="white"/>
</clipPath>
</defs>
</svg>
